<svg width="20" height="20" viewBox="0 0 20 20" fill="none" xmlns="http://www.w3.org/2000/svg">
<g clip-path="url(#clip0_1385_12001)">
<path d="M7.16841 0.0820336C5.37935 0.269534 3.61372 1.11719 2.33638 2.41016C0.285598 4.47266 -0.495651 7.50781 0.312942 10.2344C0.969192 12.4375 2.70747 14.9805 5.38716 17.6523C6.227 18.4883 7.88325 19.9609 7.98482 19.9609C7.99654 19.9609 8.00825 19.5156 8.00825 18.9688V17.9766L7.39497 17.4102C4.45747 14.7148 2.4145 11.9141 1.78169 9.71875C1.50044 8.75 1.49263 7.50781 1.76216 6.46485C2.227 4.64844 3.40669 3.16797 5.08247 2.30469C7.98091 0.812502 11.5903 1.78125 13.3715 4.53125C13.8872 5.33203 14.2387 6.26953 14.3559 7.17969L14.3833 7.38672L15.1528 8.08985C16.0356 8.89844 15.9653 8.89453 15.9731 8.14063C15.9926 5.98047 15.1606 3.9375 13.6411 2.41016C11.9536 0.703127 9.5356 -0.16406 7.16841 0.0820336Z" fill="#5F5F5F"/>
<path d="M7.39453 4.76953C6.76172 4.875 6.17578 5.19141 5.66406 5.70313C4.99609 6.37109 4.6875 7.10547 4.6875 8.02734C4.6875 8.94922 4.99609 9.68359 5.66406 10.3516C6.33203 11.0195 7.06641 11.3281 7.98828 11.3281C8.91016 11.3281 9.64453 11.0195 10.3125 10.3516C10.9805 9.68359 11.2891 8.94922 11.2891 8.02734C11.2891 7.10547 10.9805 6.37109 10.3125 5.70313C9.78906 5.17969 9.21875 4.875 8.55078 4.76953C8.25781 4.71875 7.68359 4.72266 7.39453 4.76953ZM8.46484 6.34766C9.21875 6.57031 9.72656 7.25 9.72656 8.02734C9.72656 8.99609 8.95703 9.76563 7.98828 9.76563C7.01953 9.76563 6.25 8.99609 6.25 8.02734C6.25 7.25781 6.75391 6.57813 7.49609 6.35156C7.73438 6.27734 8.21875 6.27344 8.46484 6.34766Z" fill="#5F5F5F"/>
<path d="M10.9341 11.8164C9.29349 13.3125 7.93411 14.5586 7.91458 14.5899C7.88724 14.625 8.02005 14.7969 8.39896 15.2109L8.91849 15.7852L9.12552 15.582L9.32865 15.3828L9.34427 16.8203C9.3599 17.9649 9.37552 18.2969 9.4224 18.4375C9.65677 19.1445 10.1841 19.6836 10.8599 19.9063C11.0591 19.9727 11.2935 19.9805 13.7935 19.9922C16.8052 20.0039 16.8482 20 17.3443 19.7578C17.8794 19.4961 18.3677 18.8516 18.4732 18.2656C18.5005 18.1289 18.5161 17.4844 18.5161 16.707V15.3828L18.7154 15.5625C18.8247 15.6602 18.9302 15.7422 18.9458 15.7422C18.9615 15.7422 19.149 15.5547 19.3599 15.3242C19.5708 15.0899 19.8013 14.8399 19.8716 14.7617L20.0005 14.625L16.9849 11.8711C15.3286 10.3594 13.9615 9.1172 13.9458 9.10939C13.9302 9.10548 12.5747 10.3242 10.9341 11.8164ZM15.4536 12.582L16.9576 13.957L16.9458 16.0195C16.9341 18.0352 16.9341 18.082 16.8521 18.1914C16.6646 18.4453 16.774 18.4375 13.9341 18.4375C11.4185 18.4375 11.3599 18.4375 11.2076 18.3555C11.0943 18.3008 11.0279 18.2305 10.9732 18.1133C10.9068 17.957 10.899 17.832 10.899 15.9531V13.9609L12.4068 12.5859C13.2388 11.8281 13.9224 11.211 13.9341 11.211C13.9419 11.211 14.6255 11.8281 15.4536 12.582Z" fill="#5F5F5F"/>
<path d="M12.7734 15.6641V16.8359H13.9453H15.1172V15.6641V14.4922H13.9453H12.7734V15.6641Z" fill="#5F5F5F"/>
</g>
<defs>
<clipPath id="clip0_1385_12001">
<rect width="20" height="20" fill="white"/>
</clipPath>
</defs>
</svg>
