<svg width="65" height="64" viewBox="0 0 65 64" fill="none" xmlns="http://www.w3.org/2000/svg">
<path d="M60.3499 24.7998L57.2749 22.1748C56.5999 21.5998 56.2999 20.7248 56.4499 19.8748L57.1499 15.7248C57.3749 14.3748 56.4749 13.0998 55.1249 12.8498C55.0499 12.8248 54.9749 12.8248 54.8999 12.8248L50.8249 12.5248C49.8749 12.4498 49.0499 11.8498 48.6999 10.9498L47.1499 6.9748C46.6499 5.6998 45.2249 5.0498 43.9249 5.5498C43.8999 5.5498 43.8999 5.5748 43.8749 5.5748L39.9999 7.1748C39.0749 7.5498 37.9999 7.3498 37.2999 6.6498L34.2499 3.6248C33.2749 2.6498 31.6999 2.6498 30.7499 3.6248L27.7249 6.6498C27.0249 7.3498 25.9499 7.5748 25.0249 7.1748L21.1499 5.5748C19.8749 5.0498 18.4249 5.6498 17.8999 6.9248C17.8999 6.9498 17.8749 6.9498 17.8749 6.9748L16.3249 10.9498C15.9749 11.8498 15.1499 12.4498 14.1999 12.5248L10.1249 12.8248C8.74987 12.9248 7.72487 14.1248 7.82487 15.4748C7.82487 15.5498 7.84987 15.6248 7.84987 15.6998L8.54987 19.8498C8.69987 20.6998 8.37487 21.5998 7.72487 22.1498L4.64987 24.7998C3.59987 25.6998 3.47487 27.2498 4.37487 28.2998C4.44987 28.3998 4.54987 28.4998 4.64987 28.5748L7.72487 31.1998C8.39987 31.7748 8.69987 32.6498 8.54987 33.4998L7.84987 37.6498C7.62487 38.9998 8.52487 40.2748 9.87487 40.5248C9.94987 40.5498 10.0249 40.5498 10.0999 40.5498L14.1749 40.8498C15.1249 40.9248 15.9499 41.5248 16.2999 42.4248L17.8499 46.3998C18.3499 47.6748 19.7749 48.3248 21.0749 47.8248C21.0999 47.8248 21.0999 47.7998 21.1249 47.7998L24.9999 46.1998C25.7749 45.8748 26.6749 45.9748 27.3749 46.4748V41.2998C27.3749 40.9998 27.6249 40.7748 27.8999 40.7748H37.0249C37.3249 40.7748 37.5499 41.0248 37.5499 41.2998V46.4748C38.2499 45.9748 39.1499 45.8748 39.9249 46.1998L43.7999 47.7998C45.0749 48.3248 46.5249 47.7248 47.0499 46.4498C47.0499 46.4248 47.0749 46.4248 47.0749 46.3998L48.6249 42.4248C48.9749 41.5248 49.7999 40.9248 50.7499 40.8498L54.8249 40.5498C56.1999 40.4498 57.2249 39.2498 57.1249 37.8998C57.1249 37.8248 57.0999 37.7498 57.0999 37.6748L56.3999 33.5248C56.2499 32.6748 56.5749 31.7748 57.2249 31.2248L60.2999 28.5998C61.3499 27.6998 61.4749 26.1498 60.5749 25.0998C60.5499 24.9748 60.4499 24.8998 60.3499 24.7998Z" fill="#F5C84C"/>
<path d="M41.3992 53.3998H38.1242C37.8242 53.3998 37.5992 53.1498 37.5992 52.8748V41.3248C37.5992 41.0248 37.3492 40.7998 37.0742 40.7998H27.9492C27.6492 40.7998 27.4242 41.0498 27.4242 41.3248V52.8748C27.4242 53.1748 27.1742 53.3998 26.8992 53.3998H23.5992C23.2992 53.3998 23.0742 53.6498 23.0742 53.9248C23.0742 54.0748 23.1242 54.1998 23.2242 54.2998L32.1242 63.1998C32.3242 63.3998 32.6742 63.3998 32.8742 63.1998L41.7742 54.2998C41.9742 54.0998 41.9742 53.7498 41.7742 53.5498C41.6742 53.4498 41.5492 53.3998 41.3992 53.3998Z" fill="#EF4460"/>
<path d="M18.1766 24.45H22.8516C23.1016 24.45 23.3016 24.25 23.3016 24V23.025C23.3016 22.775 23.1016 22.575 22.8516 22.575H19.8766L19.8516 14.325C19.8516 14.075 19.6516 13.875 19.4016 13.875H18.1516C17.9016 13.875 17.7016 14.075 17.7016 14.325L17.7516 24C17.7516 24.25 17.9516 24.45 18.1766 24.45ZM33.0516 16.375C32.6266 15.575 31.9766 14.9 31.2016 14.45C29.5516 13.525 27.5516 13.55 25.9016 14.45C25.1016 14.9 24.4766 15.575 24.0266 16.375C23.1266 18.125 23.1516 20.175 24.0516 21.9C24.4766 22.7 25.1266 23.375 25.9266 23.825C26.7266 24.275 27.6516 24.525 28.5766 24.5H28.6016C29.5266 24.5 30.4516 24.275 31.2516 23.8C32.0266 23.35 32.6766 22.675 33.1016 21.875C33.9516 20.175 33.9516 18.1 33.0516 16.375ZM27.0016 22.1C26.5516 21.825 26.1766 21.425 25.9266 20.95C25.4016 19.8 25.4016 18.5 25.9266 17.35C26.1516 16.875 26.5266 16.475 26.9766 16.2C27.4516 15.925 28.0016 15.8 28.5516 15.8C29.1016 15.8 29.6266 15.925 30.1016 16.2C30.5516 16.475 30.9266 16.85 31.1766 17.325C31.7016 18.475 31.7016 19.775 31.1766 20.925C30.9516 21.4 30.5766 21.8 30.1016 22.075C29.6266 22.35 29.1016 22.5 28.5516 22.475C28.0016 22.5 27.4766 22.375 27.0016 22.1ZM36.4766 24.075C36.5266 24.275 36.7016 24.4 36.9016 24.4H38.4266C38.6266 24.4 38.8016 24.275 38.8516 24.075L40.6516 17.675L42.4766 24.075C42.5266 24.275 42.7016 24.4 42.9016 24.4H44.4266C44.6266 24.4 44.8016 24.25 44.8516 24.075L47.2766 14.4C47.3266 14.175 47.2016 13.925 46.9516 13.875C46.9266 13.875 46.8766 13.85 46.8516 13.85H45.4766C45.2766 13.85 45.1016 14 45.0516 14.2L43.5766 20.7L41.7266 14.2C41.6766 14 41.5016 13.875 41.3016 13.875H39.9266C39.7266 13.875 39.5516 14 39.5016 14.2L37.7016 20.725L36.2266 14.225C36.1766 14.025 36.0016 13.875 35.8016 13.875H34.4266C34.1766 13.875 33.9766 14.075 33.9766 14.325C33.9766 14.35 33.9766 14.4 34.0016 14.425L36.4766 24.075ZM18.1516 26.9H15.0516C14.8016 26.9 14.6016 27.1 14.6016 27.35L14.6266 37.025C14.6266 37.275 14.8266 37.475 15.0766 37.475H16.3266C16.5766 37.475 16.7766 37.275 16.7766 37.025V33.575H18.1516C19.3266 33.575 20.2516 33.275 20.9016 32.7C21.5516 32.1 21.9016 31.275 21.9016 30.25C21.9516 29.325 21.6016 28.45 20.9266 27.825C20.2766 27.2 19.3516 26.9 18.1516 26.9ZM16.7516 31.625V28.825H18.0266C18.6516 28.825 19.1016 28.95 19.3516 29.175C19.6266 29.45 19.7516 29.85 19.7266 30.225C19.7516 30.6 19.6266 30.975 19.3516 31.275C19.1016 31.5 18.6516 31.625 18.0266 31.625H16.7516ZM27.5266 33.3C28.1016 33.15 28.6266 32.825 29.0266 32.4C29.5516 31.8 29.8266 31 29.8016 30.2C29.8266 29.3 29.4766 28.425 28.8266 27.8C28.2016 27.2 27.2766 26.9 26.0766 26.9H26.0516H22.8766C22.6266 26.9 22.4266 27.1 22.4266 27.35L22.4516 37C22.4516 37.25 22.6516 37.45 22.9016 37.45H24.1516C24.4016 37.45 24.6016 37.25 24.6016 37V33.5H25.2766L27.6766 37.25C27.7516 37.375 27.9016 37.45 28.0516 37.45H29.4516C29.7016 37.45 29.9016 37.25 29.9016 37C29.9016 36.925 29.8766 36.825 29.8266 36.75L27.5266 33.3ZM27.6516 30.275C27.6516 30.975 27.4516 31.7 25.9766 31.7H24.6016V28.85H25.9766C26.5766 28.85 27.0016 28.975 27.2766 29.2C27.5516 29.475 27.6766 29.875 27.6516 30.275ZM32.4266 27C32.3516 26.925 32.2266 26.875 32.1266 26.875H30.8766C30.6266 26.875 30.4266 27.075 30.4266 27.325L30.4516 36.975C30.4516 37.225 30.6516 37.425 30.9016 37.425H32.1516C32.4016 37.425 32.6016 37.225 32.6016 36.975L32.5766 27.3C32.5766 27.2 32.5266 27.075 32.4266 27ZM42.9266 33.35H41.6016C41.4266 33.35 41.2516 33.475 41.2016 33.625C41.0016 34.175 40.6516 34.625 40.1766 34.95C39.6516 35.3 39.0266 35.475 38.4016 35.45C37.8766 35.475 37.3766 35.325 36.9266 35.05C36.4766 34.775 36.1266 34.375 35.9016 33.925C35.6266 33.375 35.5016 32.75 35.5016 32.15C35.4766 31.525 35.6266 30.9 35.8766 30.35C36.3266 29.4 37.3016 28.8 38.3516 28.8C38.9766 28.775 39.5766 28.95 40.1016 29.275C40.5766 29.6 40.9266 30.05 41.1266 30.6C41.2016 30.775 41.3516 30.875 41.5266 30.875H42.8516C43.1016 30.875 43.3016 30.675 43.3016 30.425C43.3016 30.375 43.3016 30.35 43.2766 30.3C43.0016 29.275 42.3766 28.35 41.5266 27.7C40.6016 27.05 39.4766 26.7 38.3516 26.75C37.4266 26.725 36.5266 26.975 35.7266 27.45C34.9516 27.9 34.3516 28.575 33.9516 29.375C33.5266 30.225 33.3016 31.175 33.3266 32.15C33.3016 33.1 33.5266 34.05 33.9766 34.9C34.3766 35.7 35.0016 36.35 35.7766 36.8C36.5766 37.25 37.4766 37.5 38.3766 37.475H38.4016C39.5516 37.525 40.6516 37.175 41.5766 36.5C42.4266 35.85 43.0516 34.925 43.3266 33.9C43.4016 33.675 43.2516 33.425 43.0266 33.35C43.0016 33.35 42.9766 33.35 42.9266 33.35ZM50.3766 35.925C50.3766 35.675 50.1766 35.475 49.9266 35.475H46.2766V32.975H49.5016C49.7516 32.975 49.9516 32.775 49.9516 32.525V31.575C49.9516 31.325 49.7516 31.125 49.5016 31.125H46.2766V28.7H49.9266C50.1766 28.7 50.3766 28.5 50.3766 28.25V27.225C50.3766 26.975 50.1766 26.775 49.9266 26.775L44.6016 26.8C44.3516 26.8 44.1516 27 44.1516 27.25L44.1766 36.925C44.1766 37.175 44.3766 37.375 44.6266 37.375L49.9516 37.35C50.2016 37.35 50.4016 37.15 50.4016 36.9L50.3766 35.925Z" fill="#EDF4FC"/>
<path d="M44.5758 1.55C45.0038 1.55 45.3508 1.20302 45.3508 0.775C45.3508 0.346979 45.0038 0 44.5758 0C44.1478 0 43.8008 0.346979 43.8008 0.775C43.8008 1.20302 44.1478 1.55 44.5758 1.55Z" fill="#F5C84C"/>
<path d="M13.8258 48.8752C14.2538 48.8752 14.6008 48.5282 14.6008 48.1002C14.6008 47.6722 14.2538 47.3252 13.8258 47.3252C13.3978 47.3252 13.0508 47.6722 13.0508 48.1002C13.0508 48.5282 13.3978 48.8752 13.8258 48.8752Z" fill="#87D147"/>
<path d="M53.3258 46.8752C53.7538 46.8752 54.1008 46.5282 54.1008 46.1002C54.1008 45.6722 53.7538 45.3252 53.3258 45.3252C52.8978 45.3252 52.5508 45.6722 52.5508 46.1002C52.5508 46.5282 52.8978 46.8752 53.3258 46.8752Z" fill="#FC657E"/>
<path d="M19.8484 54.2252C18.7734 54.4252 17.8984 55.2502 17.6984 56.3502C17.6984 56.3752 17.6734 56.4002 17.6484 56.4002C17.6234 56.4002 17.6234 56.3752 17.5984 56.3502C17.3734 55.2752 16.5234 54.4252 15.4484 54.2252C15.4234 54.2252 15.3984 54.2002 15.3984 54.1752C15.3984 54.1502 15.4234 54.1502 15.4484 54.1252C16.5234 53.9252 17.3984 53.1002 17.5984 52.0002C17.5984 51.9752 17.6234 51.9502 17.6484 51.9502C17.6734 51.9502 17.6734 51.9752 17.6984 52.0002C17.9234 53.0752 18.7734 53.9252 19.8484 54.1252C19.8734 54.1252 19.8984 54.1502 19.8984 54.1752C19.8734 54.2002 19.8734 54.2252 19.8484 54.2252Z" fill="#F5C84C"/>
<path d="M52.5766 4.25H52.0516V3.725C52.0516 3.325 51.7266 3 51.3266 3C50.9266 3 50.6016 3.325 50.6016 3.725V4.25H50.0766C49.6766 4.25 49.3516 4.575 49.3516 4.975C49.3516 5.375 49.6766 5.7 50.0766 5.7H50.6016V6.25C50.6016 6.65 50.9266 6.975 51.3266 6.975C51.7266 6.975 52.0516 6.65 52.0516 6.25V5.725H52.5766C52.9766 5.725 53.3016 5.4 53.3016 5C53.3016 4.575 52.9766 4.25 52.5766 4.25Z" fill="#70D6F9"/>
<path d="M60.7488 24.3249L57.6738 21.6999C57.1738 21.2749 56.9488 20.6249 57.0488 19.9749L57.7488 15.8249C58.0488 14.1249 56.8988 12.5249 55.1988 12.2249C55.0988 12.1999 54.9988 12.1999 54.8988 12.1999L50.8238 11.8999C50.0988 11.8499 49.4988 11.3749 49.2238 10.7249L47.6738 6.7499C47.0488 5.1499 45.2488 4.3499 43.6488 4.9749C43.6238 4.9749 43.5988 4.9999 43.5738 4.9999L39.7488 6.5999C39.0488 6.8999 38.2488 6.7249 37.7238 6.1999L34.6988 3.1749C33.4738 1.9749 31.5238 1.9749 30.2988 3.1749L27.2738 6.1999C26.7488 6.7249 25.9488 6.8999 25.2488 6.5999L21.3738 4.9999C19.7988 4.3499 17.9738 5.0999 17.2988 6.6749C17.2988 6.6999 17.2738 6.7249 17.2738 6.7499L15.7488 10.7249C15.4988 11.3999 14.8738 11.8499 14.1488 11.8999L10.0738 12.1999C8.37381 12.3249 7.07381 13.8249 7.19881 15.5249C7.19881 15.6249 7.22381 15.7249 7.22381 15.8249L7.92381 19.9749C8.02381 20.6249 7.79881 21.2749 7.29881 21.6999L4.24881 24.3249C2.94881 25.4499 2.79881 27.3999 3.89881 28.6999C3.99881 28.8249 4.12381 28.9249 4.24881 29.0499L7.32381 31.6749C7.82381 32.0999 8.04881 32.7499 7.94881 33.3999L7.24881 37.5499C6.94881 39.2499 8.09881 40.8499 9.79881 41.1499C9.89881 41.1749 9.99881 41.1749 10.0988 41.1749L14.1738 41.4749C14.8988 41.5249 15.4988 41.9999 15.7738 42.6499L17.3238 46.6249C17.9488 48.2249 19.7488 49.0249 21.3488 48.3999C21.3738 48.3999 21.3988 48.3749 21.4238 48.3749L25.2988 46.7749C25.7988 46.5749 26.3488 46.5999 26.8238 46.8249V52.7749H23.5988C22.9488 52.7749 22.4488 53.2999 22.4488 53.9249C22.4488 54.2249 22.5738 54.5249 22.7988 54.7499L31.6988 63.6499C32.1488 64.0999 32.8738 64.0999 33.3488 63.6499L42.2488 54.7499C42.6988 54.2999 42.6988 53.5499 42.2488 53.0999C42.0238 52.8749 41.7488 52.7499 41.4238 52.7499H38.2488V46.7999C38.7238 46.5749 39.2738 46.5499 39.7738 46.7499L43.6488 48.3499C45.2238 48.9999 47.0488 48.2499 47.7238 46.6749C47.7238 46.6499 47.7488 46.6249 47.7488 46.5999L49.2988 42.6249C49.5488 41.9499 50.1738 41.4999 50.8988 41.4499L54.9738 41.1499C56.6738 41.0249 57.9738 39.5249 57.8488 37.8249C57.8488 37.7249 57.8238 37.6249 57.8238 37.5249L57.1238 33.3749C57.0238 32.7249 57.2488 32.0749 57.7488 31.6499L60.8238 29.0249C62.1238 27.8999 62.2738 25.9499 61.1738 24.6499C60.9988 24.5499 60.8738 24.4249 60.7488 24.3249ZM41.1738 54.0249L32.4988 62.7249L23.8238 54.0499H26.8738C27.5238 54.0499 28.0238 53.5249 28.0238 52.8999V41.4499H36.9738V52.8999C36.9738 53.5499 37.4988 54.0499 38.1238 54.0499L41.1738 54.0249ZM59.9488 28.0999L56.8738 30.7249C56.0488 31.4499 55.6488 32.5249 55.8238 33.5999L56.5238 37.7499C56.6988 38.7499 56.0238 39.7249 54.9988 39.8999C54.9488 39.8999 54.8738 39.9249 54.8238 39.9249L50.7488 40.2249C49.5488 40.3249 48.5238 41.0749 48.0738 42.1999L46.5238 46.1749C46.1488 47.1249 45.0738 47.5999 44.1238 47.2499C44.0988 47.2499 44.0988 47.2499 44.0738 47.2249L40.1988 45.6249C39.5738 45.3499 38.8738 45.3249 38.1988 45.4999V41.2999C38.1988 40.6499 37.6738 40.1499 37.0488 40.1499H27.9238C27.2738 40.1499 26.7738 40.6749 26.7738 41.2999V45.4999C26.1238 45.3249 25.4238 45.3749 24.7738 45.6249L20.8988 47.2499C19.9488 47.6499 18.8738 47.1999 18.4738 46.2499C18.4738 46.2249 18.4738 46.2249 18.4488 46.1999L16.8988 42.2249C16.4738 41.0999 15.4238 40.3499 14.2238 40.2499L10.1488 39.9499C9.12381 39.8749 8.34881 38.9749 8.42381 37.9499C8.42381 37.8999 8.42381 37.8249 8.44881 37.7749L9.14881 33.6249C9.32381 32.5499 8.92381 31.4499 8.09881 30.7499L5.02381 28.1249C4.24881 27.4499 4.14881 26.2749 4.82381 25.4999C4.89881 25.4249 4.94881 25.3499 5.02381 25.2999L8.09881 22.6749C8.92381 21.9499 9.32381 20.8749 9.14881 19.7999L8.44881 15.6499C8.27381 14.6499 8.94881 13.6749 9.97381 13.4999C10.0238 13.4999 10.0988 13.4749 10.1488 13.4749L14.2488 13.1499C15.4488 13.0499 16.4738 12.2999 16.9238 11.1749L18.4738 7.1999C18.8488 6.2499 19.9238 5.7749 20.8738 6.1249C20.8988 6.1249 20.8988 6.1249 20.9238 6.1499L24.7738 7.7499C25.9238 8.2249 27.2738 7.9749 28.1488 7.0749L31.1738 4.0499C31.8988 3.3249 33.0738 3.3249 33.7988 4.0499L36.8238 7.0749C37.7238 7.9749 39.0488 8.2249 40.1988 7.7499L44.0738 6.1499C45.0238 5.7499 46.0988 6.1999 46.4988 7.1499C46.4988 7.1749 46.4988 7.1749 46.5238 7.1999L48.0738 11.1749C48.4988 12.2999 49.5488 13.0499 50.7488 13.1499L54.8238 13.4499C55.8488 13.5249 56.6238 14.4249 56.5488 15.4499C56.5488 15.4999 56.5488 15.5749 56.5238 15.6249L55.8238 19.7749C55.6488 20.8499 56.0488 21.9499 56.8738 22.6499L59.9488 25.2749C60.7238 25.9499 60.8238 27.1249 60.1488 27.8999C60.0988 27.9749 60.0238 28.0499 59.9488 28.0999Z" fill="black"/>
<path d="M18.1742 25.0749H22.8492C23.4492 25.0749 23.9242 24.5999 23.8992 23.9999V23.0249C23.8992 22.9749 23.8992 22.9249 23.8742 22.8999C24.9742 24.3499 26.6992 25.1999 28.5242 25.1749C31.8492 25.1749 34.3242 22.5999 34.2992 19.1499C34.2992 18.7499 34.2742 18.3499 34.1992 17.9499L35.8242 24.2499C35.9492 24.7249 36.3742 25.0499 36.8492 25.0499H38.3742C38.8492 25.0499 39.2742 24.7249 39.3992 24.2749L40.5992 19.9999L41.8242 24.2749C41.9492 24.7249 42.3742 25.0499 42.8492 25.0499H44.3742C44.8492 25.0499 45.2742 24.7249 45.3992 24.2499L47.8242 14.5749C47.9742 13.9999 47.6242 13.4249 47.0492 13.2749C46.9742 13.2499 46.8742 13.2499 46.7992 13.2499H45.4242C44.9242 13.2499 44.4992 13.5999 44.3992 14.0749L43.4992 18.1499L42.3242 13.9999C42.1992 13.5499 41.7742 13.2249 41.2992 13.2249H39.9242C39.4492 13.2249 39.0242 13.5499 38.8992 13.9999L37.7492 18.1499L36.8242 14.0749C36.7242 13.5999 36.2742 13.2499 35.7742 13.2499H34.3992C33.7992 13.2499 33.3242 13.7249 33.3492 14.3249C33.3492 14.4249 33.3492 14.4999 33.3742 14.5999L33.9992 17.0499C33.8992 16.7249 33.7492 16.3999 33.5742 16.0999C32.5742 14.2499 30.6242 13.1249 28.5242 13.1749C25.2492 13.1749 22.6992 15.6749 22.7242 19.1999C22.7242 20.2249 22.9492 21.2499 23.4242 22.1749C23.2492 22.0499 23.0492 21.9999 22.8492 21.9999H20.4992L20.4742 14.3749C20.4742 13.7999 19.9992 13.3249 19.3992 13.3249H18.1492C17.5492 13.3249 17.0742 13.7999 17.0742 14.3999L17.0992 24.0749C17.1242 24.5999 17.5992 25.0749 18.1742 25.0749ZM35.6492 14.4999L37.0992 20.8499C37.1742 21.1749 37.4992 21.3999 37.8492 21.3249C38.0742 21.2749 38.2492 21.0999 38.3242 20.8749L40.0992 14.4749H41.1992L42.9992 20.8499C43.0992 21.1749 43.4492 21.3749 43.7742 21.2749C43.9992 21.2249 44.1742 21.0249 44.2242 20.7999L45.6492 14.4499H46.6242L44.2492 23.7499H43.0242L41.2492 17.4999C41.1742 17.2249 40.9242 17.0499 40.6492 17.0499C40.3742 17.0499 40.1242 17.2249 40.0492 17.4999L38.2992 23.7749H37.0742L34.6492 14.4999H35.6492ZM28.5242 14.3749C31.2242 14.3749 33.0742 16.3999 33.0742 19.1249C33.0742 21.8249 31.2492 23.8999 28.5242 23.8999C25.9242 23.8999 23.9742 21.9749 23.9492 19.1499C23.9742 16.3499 25.9242 14.3999 28.5242 14.3749ZM19.2242 14.5249L19.2492 22.5999C19.2492 22.9499 19.5242 23.2249 19.8742 23.2249H22.6742V23.8249H18.3742L18.3492 14.5249H19.2242Z" fill="black"/>
<path d="M28.475 23.1252C28.5 23.1252 28.525 23.1252 28.575 23.1252C30.625 23.1252 32.2 21.6002 32.2 19.1502C32.2 16.7002 30.65 15.2002 28.55 15.2002C26.45 15.2002 24.9 16.7252 24.9 19.1752C24.9 21.6252 26.5 23.1252 28.475 23.1252ZM28.55 16.4252C30.075 16.4252 30.925 17.5502 30.95 19.1252C30.95 20.8752 29.95 21.8502 28.55 21.8502C27.225 21.8752 26.15 20.9252 26.15 19.1502C26.15 17.5502 27 16.4252 28.55 16.4252ZM18.025 28.2002H16.75C16.4 28.2002 16.125 28.4752 16.125 28.8252V31.6252C16.125 31.9752 16.4 32.2502 16.75 32.2502H18.025C19.45 32.2502 20.35 31.6502 20.35 30.2252C20.35 28.8002 19.5 28.2002 18.025 28.2002ZM18.925 30.8252C18.9 30.8502 18.7 31.0002 18.025 31.0002H17.375V29.4502H18.025C18.925 29.4502 19.1 29.6252 19.1 30.2252C19.1 30.6502 18.975 30.7752 18.925 30.8252ZM28.275 30.2752C28.275 28.8502 27.4 28.2252 25.95 28.2252H24.575C24.225 28.2252 23.95 28.5002 23.95 28.8502V31.7002C23.95 32.0502 24.225 32.3252 24.575 32.3252H25.95C27.5 32.3252 28.275 31.6252 28.275 30.2752ZM25.975 31.0752H25.225V29.4752H26C26.6 29.4752 26.825 29.6252 26.875 29.6752C27 29.8502 27.075 30.0502 27.05 30.2752C27.025 30.7252 27.025 31.0752 25.975 31.0752Z" fill="black"/>
<path d="M50.6743 35.1499C50.4743 34.9499 50.1993 34.8499 49.9243 34.8499H46.8993V33.5999H49.4993C50.0993 33.5999 50.5743 33.1249 50.5493 32.5249V31.5749C50.5493 30.9999 50.0743 30.5249 49.4743 30.5249H46.8743V29.3499H49.8993C50.4993 29.3499 50.9743 28.8749 50.9493 28.2749V27.2499C50.9493 26.6749 50.4743 26.1999 49.8743 26.1999L44.5493 26.2249C43.9493 26.2249 43.4743 26.6999 43.4993 27.2999V29.0999C42.5993 27.2999 40.8743 26.1499 38.3993 26.1499H38.3743C35.9243 26.1499 34.0243 27.4999 33.1743 29.6499V27.3249C33.1743 27.0499 33.0743 26.7749 32.8743 26.5749C32.6743 26.3749 32.3993 26.2749 32.1243 26.2749H30.8743C30.2743 26.2749 29.7993 26.7499 29.8243 27.3499V28.0249C29.6743 27.7749 29.4743 27.5749 29.2743 27.3749C28.5243 26.6499 27.4493 26.2999 26.0743 26.2999H22.8993C22.2993 26.2999 21.8493 26.7749 21.8493 27.3749V27.9249C21.6993 27.7249 21.5493 27.5249 21.3743 27.3749C20.6243 26.6749 19.5493 26.3249 18.1743 26.3249H18.1493H15.0743C14.4743 26.3249 13.9993 26.7999 14.0243 27.3999L14.0493 37.0749C14.0493 37.6499 14.5243 38.1249 15.1243 38.1249H16.3743C16.9743 38.1249 17.4493 37.6499 17.4493 37.0499V34.2249H18.1993C20.0493 34.2249 21.2243 33.5499 21.8993 32.5999V37.0499C21.8993 37.6499 22.3743 38.1249 22.9743 38.0999H24.2243C24.8243 38.0999 25.2993 37.6249 25.2743 37.0249V34.5999L27.1993 37.5999C27.3993 37.8999 27.7243 38.0999 28.0993 38.0999H29.4993C29.7743 38.0999 30.0243 37.9999 30.2243 37.7999C30.4243 37.9749 30.6743 38.0999 30.9493 38.0999H32.1993C32.7993 38.0999 33.2743 37.6249 33.2493 37.0249V34.6999C34.0743 36.7749 35.9493 38.1749 38.4743 38.1749C40.9743 38.1749 42.6993 36.9999 43.5743 35.1999V37.0249C43.5743 37.6249 44.0493 38.0999 44.6493 38.0749L49.9743 38.0499C50.5493 38.0499 51.0243 37.5749 51.0243 36.9749V35.9499C50.9993 35.6249 50.8993 35.3499 50.6743 35.1499ZM18.1493 32.9249H16.7743C16.4243 32.9249 16.1493 33.1999 16.1493 33.5499V36.8249H15.2743L15.2493 27.5249H18.1493C20.0243 27.5249 21.2493 28.3499 21.2493 30.2249C21.2493 32.0999 19.9993 32.9249 18.1493 32.9249ZM28.1493 36.7999L25.7993 33.1499C25.6743 32.9749 25.4743 32.8749 25.2743 32.8749H24.5993C24.2493 32.8749 23.9743 33.1499 23.9743 33.4999V36.8249H23.0993L23.0743 27.5249H26.0743C28.1743 27.5249 29.1743 28.5999 29.1743 30.1999C29.1743 31.4999 28.5243 32.3499 27.3493 32.6999C27.0243 32.7999 26.8243 33.1499 26.9243 33.4749C26.9493 33.5249 26.9743 33.5999 26.9993 33.6499L29.0993 36.7999H28.1493ZM28.4743 33.5999C29.0243 33.3249 29.4993 32.8999 29.8243 32.3999V35.6499L28.4743 33.5999ZM31.0743 36.7999L31.0493 27.4999H31.9243L31.9493 36.7999H31.0743ZM38.3993 36.8499C35.6993 36.8499 33.9993 34.8499 33.9743 32.1499C33.9743 29.4499 35.6493 27.3999 38.3743 27.3999H38.3993C40.5993 27.3999 42.0243 28.5249 42.6243 30.2749H41.6743C41.1493 29.0249 39.9993 28.1749 38.3243 28.1749C36.3493 28.1749 34.8493 29.6749 34.8493 32.1499C34.8493 34.6999 36.4993 36.0999 38.3493 36.0749C40.0243 36.0749 41.1493 35.1999 41.6743 33.9749H42.6243C42.0743 35.7249 40.6493 36.8499 38.3993 36.8499ZM42.9243 32.7249H41.5993C41.1493 32.7249 40.7743 32.9999 40.5993 33.3999C40.2493 34.2749 39.5243 34.8249 38.3743 34.8249C37.1743 34.8249 36.1493 33.9249 36.1493 32.1499C36.1493 30.6499 36.8993 29.4249 38.3993 29.4249C39.5243 29.4249 40.2743 29.9499 40.5993 30.8249C40.7493 31.2249 41.1493 31.4999 41.5993 31.4999H42.9243C43.1493 31.4999 43.3493 31.4249 43.5243 31.2999V32.8999C43.3493 32.7749 43.1493 32.7249 42.9243 32.7249ZM44.7993 36.7499L44.7743 27.4499H49.7243V28.0999H46.2743C45.9243 28.0999 45.6493 28.3749 45.6493 28.7249V31.1499C45.6493 31.4999 45.9243 31.7749 46.2743 31.7749H49.3243V32.3749H46.2743C45.9243 32.3749 45.6493 32.6499 45.6493 32.9999V35.4999C45.6493 35.8499 45.9243 36.1249 46.2743 36.1249H49.7243V36.7749L44.7993 36.7499ZM13.8493 5.1499C14.1743 5.0499 14.3743 4.6999 14.2743 4.3749L13.1993 0.574899C13.0993 0.249899 12.7493 0.0498992 12.4243 0.149899C12.0993 0.249899 11.8993 0.599899 11.9993 0.924899L13.0743 4.7249C13.1493 5.0499 13.4993 5.2499 13.8493 5.1499ZM10.9493 6.9499C11.1993 6.6999 11.1743 6.2999 10.9493 6.0749L8.12434 3.3249C7.87434 3.0749 7.47434 3.0999 7.24934 3.3499C6.99934 3.5999 7.02434 3.9999 7.24934 4.2249L10.0743 6.9749C10.3243 7.1999 10.7243 7.1999 10.9493 6.9499ZM4.32434 8.6499C4.24934 8.9749 4.44934 9.3249 4.77434 9.3999L8.59934 10.3749C8.92434 10.4749 9.27434 10.2749 9.37434 9.9499C9.47434 9.6249 9.27434 9.2749 8.94934 9.1749H8.92434L5.09934 8.1999C4.74934 8.1249 4.42434 8.3249 4.32434 8.6499Z" fill="black"/>
</svg>
