<svg width="57" height="56" viewBox="0 0 57 56" fill="none" xmlns="http://www.w3.org/2000/svg">
<g clip-path="url(#clip0_1329_3077)">
<path d="M26.1367 16.7125C26.1367 16.45 26.3117 16.275 26.5742 16.275H33.6617C33.9242 16.275 34.0992 16.45 34.0992 16.7125V21.9625C34.0992 22.225 33.9242 22.4 33.6617 22.4H28.0617V24.7625H33.6617C33.9242 24.7625 34.0992 24.9375 34.0992 25.2V26.25C34.0992 26.5125 33.9242 26.6875 33.6617 26.6875H26.5742C26.3117 26.6875 26.1367 26.5125 26.1367 26.25V21C26.1367 20.7375 26.3117 20.5625 26.5742 20.5625H32.1742V18.2H26.5742C26.3117 18.2 26.1367 18.025 26.1367 17.7625V16.7125ZM43.5492 16.275C43.8117 16.275 43.9867 16.45 43.9867 16.7125V26.1625C43.9867 26.425 43.8117 26.6 43.5492 26.6H42.4992C42.2367 26.6 42.0617 26.425 42.0617 26.1625V22.3125H36.4617C36.1992 22.3125 36.0242 22.1375 36.0242 21.875V16.625C36.0242 16.3625 36.1992 16.1875 36.4617 16.1875H37.5117C37.7742 16.1875 37.9492 16.3625 37.9492 16.625V20.3875H42.1492V16.625C42.1492 16.3625 42.3242 16.1875 42.5867 16.1875H43.5492V16.275Z" fill="#2B2D44"/>
<path d="M31.8262 37.8877L26.4012 43.3127C23.6012 42.6127 20.8887 40.6877 18.3512 38.1502C15.8137 35.6127 13.8887 32.8127 13.1887 30.1002L18.6137 24.6752L6.45116 12.5127L2.77616 16.1877C0.763664 18.2002 0.0636642 21.0877 0.851164 23.7127C2.77616 30.2752 7.41366 36.9252 13.5387 42.9627C19.6637 49.0877 26.2262 53.7252 32.8762 55.6502C35.5887 56.4377 38.4762 55.6502 40.4012 53.7252L44.0762 50.0502L31.8262 37.8877Z" fill="#FFCE00"/>
<path d="M38.9984 49.0876L41.9734 52.0626L40.3109 53.7251C38.2984 55.7376 35.4109 56.4376 32.7859 55.6501C26.1359 53.7251 19.5734 49.0876 13.4484 42.9626C12.9234 42.4376 12.4859 41.9126 11.9609 41.4751C17.6484 46.9001 23.6859 50.9251 29.7234 52.6751C32.4359 53.4626 35.3234 52.6751 37.2484 50.7501L38.9984 49.0876Z" fill="#FFB000"/>
<path d="M7.32578 10.4998C7.67578 10.1498 8.11328 10.1498 8.46328 10.4998L20.6258 22.6623C20.9758 23.0123 20.9758 23.4498 20.6258 23.7998L17.7383 26.6873C17.3883 27.0373 16.9508 27.0373 16.6008 26.6873L4.43828 14.5248C4.08828 14.1748 4.08828 13.7373 4.43828 13.3873L7.32578 10.4998ZM33.8383 35.8748L46.0008 48.0373C46.3508 48.3873 46.3508 48.8248 46.0008 49.1748L43.1133 52.0623C42.7633 52.4123 42.3258 52.4123 41.9758 52.0623L29.8133 39.8998C29.4633 39.5498 29.4633 39.1123 29.8133 38.7623L32.7008 35.8748C33.0508 35.5248 33.4883 35.5248 33.8383 35.8748Z" fill="#2B2D44"/>
<path d="M43.025 45.0625L46 48.0375C46.35 48.3875 46.35 48.825 46 49.175L43.1125 52.0625C42.7625 52.4125 42.325 52.4125 41.975 52.0625L39 49.0875C39.35 49.4375 39.7875 49.4375 40.1375 49.0875L43.025 46.2C43.2875 45.85 43.2875 45.325 43.025 45.0625Z" fill="#1C1F30"/>
<path d="M12.4859 16.7126C12.7484 16.9751 12.7484 17.3251 12.4859 17.5001C12.2234 17.7626 11.8734 17.7626 11.6984 17.5001L8.54844 14.3501C8.28594 14.0876 8.28594 13.7376 8.54844 13.5626C8.81094 13.3876 9.16094 13.3001 9.33594 13.5626L12.4859 16.7126Z" fill="#46495E"/>
<path d="M34.0132 0C27.1007 0 20.6257 3.15 16.3382 8.575C16.1632 8.75 16.0757 9.0125 16.1632 9.275C16.2507 9.5375 16.3382 9.7125 16.5132 9.8875C16.9507 10.15 17.4757 10.0625 17.7382 9.7125C21.6757 4.8125 27.6257 1.8375 33.9257 1.8375C45.3007 1.8375 54.5757 11.1125 54.5757 22.4875C54.5757 28.175 52.3007 33.5125 48.1882 37.45C47.8382 37.8 47.8382 38.325 48.1007 38.675C48.2757 38.85 48.4507 39.025 48.7132 39.025C48.9757 39.025 49.2382 38.9375 49.4132 38.7625C53.8757 34.475 56.4132 28.7 56.4132 22.4875C56.5007 10.15 46.3507 0 34.0132 0Z" fill="#8FD67B"/>
<path d="M55.5383 22.4875C55.5383 10.5875 45.8258 0.875 33.9258 0.875C26.7508 0.875 20.3633 4.375 16.4258 9.8C16.8633 10.0625 17.3883 9.975 17.6508 9.625C21.5883 4.725 27.5383 1.75 33.8383 1.75C45.2133 1.75 54.4883 11.025 54.4883 22.4C54.4883 28.0875 52.2133 33.425 48.1008 37.3625C47.7508 37.7125 47.7508 38.2375 48.0133 38.5875H48.1008C52.7383 34.7375 55.5383 28.9625 55.5383 22.4875Z" fill="#7DC466"/>
</g>
<defs>
<clipPath id="clip0_1329_3077">
<rect width="56" height="56" fill="white" transform="translate(0.5)"/>
</clipPath>
</defs>
</svg>
