<svg width="19" height="20" viewBox="0 0 19 20" fill="none" xmlns="http://www.w3.org/2000/svg">
<path d="M5.79906 14.4071C5.87789 14.4664 5.96762 14.5095 6.06312 14.534C6.15862 14.5585 6.25802 14.564 6.35564 14.5501C6.45325 14.5361 6.54716 14.5031 6.63198 14.4528C6.71681 14.4026 6.7909 14.3361 6.85 14.2571C7.30409 13.6517 7.89291 13.1603 8.56983 12.8218C9.24675 12.4833 9.99318 12.3071 10.75 12.3071C11.5068 12.3071 12.2532 12.4833 12.9302 12.8218C13.6071 13.1603 14.1959 13.6517 14.65 14.2571C14.7091 14.3359 14.7831 14.4023 14.8679 14.4525C14.9526 14.5027 15.0464 14.5357 15.1439 14.5496C15.2414 14.5635 15.3407 14.5581 15.4361 14.5337C15.5315 14.5092 15.6212 14.4662 15.7 14.4071C15.7788 14.348 15.8452 14.274 15.8954 14.1892C15.9455 14.1045 15.9785 14.0107 15.9925 13.9132C16.0064 13.8157 16.001 13.7164 15.9765 13.621C15.9521 13.5256 15.9091 13.4359 15.85 13.3571C15.1859 12.4667 14.3003 11.7657 13.2812 11.3237C13.8397 10.8138 14.231 10.147 14.4037 9.41081C14.5764 8.6746 14.5225 7.90337 14.2491 7.19834C13.9756 6.4933 13.4954 5.88741 12.8715 5.46017C12.2476 5.03293 11.509 4.8043 10.7528 4.8043C9.99661 4.8043 9.25808 5.03293 8.63413 5.46017C8.01019 5.88741 7.52999 6.4933 7.25655 7.19834C6.98311 7.90337 6.92922 8.6746 7.10194 9.41081C7.27466 10.147 7.66592 10.8138 8.22437 11.3237C7.20328 11.7649 6.31567 12.466 5.65 13.3571C5.53055 13.5161 5.47915 13.7161 5.50711 13.913C5.53506 14.1099 5.64008 14.2876 5.79906 14.4071ZM8.5 8.55713C8.5 8.11212 8.63196 7.67711 8.87919 7.3071C9.12643 6.93709 9.47783 6.6487 9.88896 6.4784C10.3001 6.3081 10.7525 6.26355 11.189 6.35036C11.6254 6.43718 12.0263 6.65147 12.341 6.96614C12.6557 7.28081 12.87 7.68172 12.9568 8.11818C13.0436 8.55463 12.999 9.00703 12.8287 9.41817C12.6584 9.8293 12.37 10.1807 12 10.4279C11.63 10.6752 11.195 10.8071 10.75 10.8071C10.1533 10.8071 9.58097 10.5701 9.15901 10.1481C8.73705 9.72616 8.5 9.15387 8.5 8.55713ZM17.5 0.307129H4C3.60218 0.307129 3.22064 0.465164 2.93934 0.746469C2.65804 1.02777 2.5 1.4093 2.5 1.80713V4.05713H1C0.801088 4.05713 0.610322 4.13615 0.46967 4.2768C0.329018 4.41745 0.25 4.60822 0.25 4.80713C0.25 5.00604 0.329018 5.19681 0.46967 5.33746C0.610322 5.47811 0.801088 5.55713 1 5.55713H2.5V9.30713H1C0.801088 9.30713 0.610322 9.38615 0.46967 9.5268C0.329018 9.66745 0.25 9.85822 0.25 10.0571C0.25 10.256 0.329018 10.4468 0.46967 10.5875C0.610322 10.7281 0.801088 10.8071 1 10.8071H2.5V14.5571H1C0.801088 14.5571 0.610322 14.6361 0.46967 14.7768C0.329018 14.9175 0.25 15.1082 0.25 15.3071C0.25 15.506 0.329018 15.6968 0.46967 15.8375C0.610322 15.9781 0.801088 16.0571 1 16.0571H2.5V18.3071C2.5 18.705 2.65804 19.0865 2.93934 19.3678C3.22064 19.6491 3.60218 19.8071 4 19.8071H17.5C17.8978 19.8071 18.2794 19.6491 18.5607 19.3678C18.842 19.0865 19 18.705 19 18.3071V1.80713C19 1.4093 18.842 1.02777 18.5607 0.746469C18.2794 0.465164 17.8978 0.307129 17.5 0.307129ZM17.5 18.3071H4V1.80713H17.5V18.3071Z" fill="#3F3F3F" fill-opacity="0.8"/>
</svg>
