<svg width="64" height="56" viewBox="0 0 64 56" fill="none" xmlns="http://www.w3.org/2000/svg">
<g clip-path="url(#clip0_1329_3161)">
<path d="M4.6875 11.1738H59.3125V50.4238C59.3125 51.4184 58.9174 52.3722 58.2141 53.0755C57.5109 53.7787 56.5571 54.1738 55.5625 54.1738H8.4375C7.44294 54.1738 6.48911 53.7787 5.78585 53.0755C5.08259 52.3722 4.6875 51.4184 4.6875 50.4238V11.1738Z" fill="#FFC166"/>
<path d="M4.6875 11.1738V13.6738H45.9958C47.4163 13.6738 48.8228 13.9536 50.1352 14.4972C51.4475 15.0408 52.6399 15.8375 53.6444 16.842C54.6488 17.8464 55.4455 19.0388 55.9891 20.3512C56.5327 21.6635 56.8125 23.0701 56.8125 24.4905V52.9238C56.8127 53.2927 56.7584 53.6596 56.6514 54.0127C57.4211 53.7789 58.0953 53.3039 58.5745 52.6577C59.0537 52.0114 59.3124 51.2283 59.3125 50.4238V11.1738H4.6875Z" fill="#FFAE36"/>
<path d="M32 49.8613C41.4924 49.8613 49.1875 42.1662 49.1875 32.6738C49.1875 23.1814 41.4924 15.4863 32 15.4863C22.5076 15.4863 14.8125 23.1814 14.8125 32.6738C14.8125 42.1662 22.5076 49.8613 32 49.8613Z" fill="white"/>
<path d="M61.8143 0.0488281H2.18575C1.49636 0.0488281 0.9375 0.607689 0.9375 1.29708V9.92558C0.9375 10.615 1.49636 11.1738 2.18575 11.1738H61.8143C62.5036 11.1738 63.0625 10.615 63.0625 9.92558V1.29708C63.0625 0.607689 62.5036 0.0488281 61.8143 0.0488281Z" fill="#FFC166"/>
<path d="M61.8125 0.0488281H59.3125C59.4764 0.0488263 59.6388 0.0811127 59.7902 0.143845C59.9417 0.206576 60.0793 0.298525 60.1952 0.41444C60.3111 0.530355 60.403 0.667966 60.4658 0.819417C60.5285 0.970868 60.5608 1.13319 60.5608 1.29712V9.92554C60.5608 10.0895 60.5285 10.2518 60.4658 10.4032C60.403 10.5547 60.3111 10.6923 60.1952 10.8082C60.0793 10.9241 59.9417 11.0161 59.7902 11.0788C59.6388 11.1415 59.4764 11.1738 59.3125 11.1738H61.8125C61.9764 11.1738 62.1388 11.1415 62.2902 11.0788C62.4417 11.0161 62.5793 10.9241 62.6952 10.8082C62.8111 10.6923 62.903 10.5547 62.9658 10.4032C63.0285 10.2518 63.0608 10.0895 63.0608 9.92554V1.29712C63.0608 1.13319 63.0285 0.970868 62.9658 0.819417C62.903 0.667966 62.8111 0.530355 62.6952 0.41444C62.5793 0.298525 62.4417 0.206576 62.2902 0.143845C62.1388 0.0811127 61.9764 0.0488263 61.8125 0.0488281Z" fill="#FFAE36"/>
<path d="M38.386 28.1307H27.386C27.2202 28.1307 27.0612 28.0648 26.944 27.9476C26.8268 27.8304 26.761 27.6714 26.761 27.5057V25.3428C26.761 25.2247 26.7275 25.1091 26.6645 25.0093C26.6015 24.9094 26.5116 24.8295 26.405 24.7787C26.2985 24.7278 26.1797 24.7082 26.0625 24.7221C25.9453 24.736 25.8344 24.7828 25.7426 24.8571L19.5989 29.8325C19.5265 29.891 19.4681 29.9651 19.4281 30.0491C19.388 30.1331 19.3672 30.2251 19.3672 30.3182C19.3672 30.4113 19.388 30.5032 19.4281 30.5872C19.4681 30.6713 19.5265 30.7453 19.5989 30.8039L25.7426 35.7793C25.8344 35.8535 25.9453 35.9003 26.0625 35.9142C26.1797 35.9281 26.2985 35.9085 26.405 35.8577C26.5116 35.8068 26.6015 35.7269 26.6645 35.6271C26.7275 35.5272 26.761 35.4116 26.761 35.2935V33.1307C26.761 32.9649 26.8268 32.8059 26.944 32.6887C27.0612 32.5715 27.2202 32.5057 27.386 32.5057H38.333C38.8213 32.5005 39.2929 32.6826 39.6511 33.0145C40.0093 33.3463 40.2268 33.8028 40.2588 34.29C40.2711 34.5436 40.2317 34.797 40.1431 35.0349C40.0546 35.2728 39.9186 35.4902 39.7435 35.674C39.5683 35.8578 39.3577 36.0041 39.1244 36.1041C38.891 36.2041 38.6398 36.2557 38.386 36.2557H31.136C30.9702 36.2557 30.8112 36.3215 30.694 36.4387C30.5768 36.5559 30.511 36.7149 30.511 36.8807V40.0057C30.511 40.1714 30.5768 40.3304 30.694 40.4476C30.8112 40.5648 30.9702 40.6307 31.136 40.6307H38.386C40.0436 40.6307 41.6333 39.9722 42.8054 38.8001C43.9775 37.628 44.636 36.0383 44.636 34.3807C44.636 33.5599 44.4743 32.7472 44.1602 31.9889C43.8461 31.2306 43.3857 30.5416 42.8054 29.9612C42.225 29.3809 41.536 28.9205 40.7777 28.6064C40.0194 28.2923 39.2067 28.1307 38.386 28.1307Z" fill="#63EA86"/>
<path d="M41.3179 0.0488281H22.6875V11.1738H41.3179V0.0488281Z" fill="#FFCD85"/>
<path d="M63.0625 55.1113H0.9375C0.68886 55.1113 0.450403 55.0126 0.274587 54.8367C0.098772 54.6609 0 54.4225 0 54.1738C0 53.9252 0.098772 53.6867 0.274587 53.5109C0.450403 53.3351 0.68886 53.2363 0.9375 53.2363H63.0625C63.3111 53.2363 63.5496 53.3351 63.7254 53.5109C63.9012 53.6867 64 53.9252 64 54.1738C64 54.4225 63.9012 54.6609 63.7254 54.8367C63.5496 55.0126 63.3111 55.1113 63.0625 55.1113Z" fill="#676E87"/>
</g>
<defs>
<clipPath id="clip0_1329_3161">
<rect width="64" height="55.1111" fill="white"/>
</clipPath>
</defs>
</svg>
