<svg width="1440" height="594" viewBox="0 0 1440 594" fill="none" xmlns="http://www.w3.org/2000/svg">
<rect width="1440" height="594" fill="white"/>
<path d="M543.658 23.1335C538.452 25.779 535.294 29.9607 533.929 36.1051C532.137 43.9564 535.124 52.5757 541.183 56.672C542.634 57.6107 550.656 60.8536 558.933 63.7551C568.748 67.1687 574.209 69.5582 574.465 70.4116C574.721 71.1797 582.061 109.241 590.765 154.983C599.47 200.725 607.918 243.224 609.54 249.454C619.61 288.028 638.043 313.288 663.731 323.7C674.995 328.223 674.569 328.223 755.897 328.223H831.508L835.263 326.26C847.723 320.03 848.235 299.122 836.117 291.953C833.215 290.246 831.764 290.246 758.457 289.82L683.785 289.393L678.665 287.43C668.339 283.505 661.853 277.787 656.05 267.461L653.319 262.511H746.254C852.928 262.511 845.077 263.108 853.184 255.001C856.086 252.1 859.073 247.918 860.694 244.59C862.23 241.432 872.471 207.979 884.76 166.077C904.9 97.5496 906.18 92.7706 905.754 88.1623C905.071 81.5911 902.681 76.3854 899.097 73.6545C892.526 68.6195 898.756 68.7902 749.838 68.7902H613.551L609.625 56.5866C605.444 43.5297 602.457 38.2386 597.934 35.8491C594.605 34.1423 551.936 21 549.631 21C548.778 21 546.047 21.9387 543.658 23.1335ZM707.51 128.187C715.958 133.734 717.153 145.254 709.899 152.508C699.915 162.578 682.932 155.41 683.103 141.243C683.273 128.613 696.842 121.274 707.51 128.187ZM794.556 126.053C798.823 127.248 804.2 132.112 805.48 135.952C807.784 143.036 804.712 151.484 798.567 154.812C791.996 158.482 785.595 157.885 780.048 153.02C770.917 144.998 773.819 130.491 785.425 126.394C789.521 124.944 790.46 124.858 794.556 126.053ZM762.724 171.198C780.56 175.55 805.224 191.594 807.954 200.811C808.893 203.883 808.808 204.736 807.442 207.552C805.565 211.393 801.042 214.721 797.799 214.721C794.812 214.721 791.228 212.673 784.657 207.04C777.232 200.725 769.637 196.373 761.444 193.642C751.886 190.484 737.805 190.314 729.101 193.215C718.604 196.714 711.35 200.981 702.475 208.747C699.829 211.137 696.33 213.355 694.794 213.782C686.004 216.257 678.238 206.955 682.164 198.762C684.127 194.922 696.245 184.852 705.376 179.646C713.057 175.209 726.114 170.686 734.136 169.576C742.243 168.467 753.934 169.15 762.724 171.198Z" fill="#CF1E24"/>
<path d="M687.029 350.496C674.825 355.19 666.462 369.698 668.766 382.157C669.876 388.387 670.985 391.033 674.484 395.726C678.153 400.761 683.871 404.431 690.869 406.394C704.097 410.063 718.348 403.065 724.493 389.923C727.736 383.011 727.992 374.647 725.09 367.052C722.53 360.14 715.532 353.142 708.705 350.582C702.305 348.107 693.259 348.107 687.029 350.496Z" fill="#CF1E24"/>
<path d="M804.796 350.496C795.323 354.166 787.472 364.407 786.192 374.733C784.4 388.814 795.323 403.834 809.49 406.82C822.12 409.381 835.86 402.724 841.833 391.033C845.162 384.717 845.588 374.135 842.857 367.052C840.297 360.14 833.299 353.056 826.472 350.582C820.072 348.107 811.026 348.107 804.796 350.496Z" fill="#CF1E24"/>
<path d="M443.829 523.302C443.829 522.168 444.103 521.293 444.653 520.675C445.237 520.022 445.889 519.696 446.61 519.696C447.366 519.696 448.018 519.971 448.568 520.52C449.151 521.035 449.409 521.842 449.34 522.941C448.997 529.877 447.125 535.458 443.726 539.681C440.463 543.733 436.377 545.759 431.467 545.759C422.195 545.759 416.203 538.823 413.49 524.95C412.46 519.833 411.945 513.807 411.945 506.87C411.945 499.899 412.374 493.701 413.233 488.276C414.091 482.816 415.396 478.077 417.147 474.059C420.89 465.474 426.213 461.182 433.115 461.182C438.472 461.182 442.438 463.294 445.013 467.518C447.726 472.016 449.083 479.365 449.083 489.563C449.083 490.697 448.825 491.555 448.31 492.139C447.795 492.688 447.177 492.963 446.456 492.963C444.876 492.963 444.086 491.967 444.086 489.975C444.086 477.27 442.06 469.698 438.008 467.26C436.566 466.402 434.883 465.972 432.96 465.972C431.037 465.972 429.303 466.522 427.758 467.621C426.247 468.685 424.891 470.179 423.689 472.102C422.521 473.991 421.508 476.24 420.65 478.85C419.791 481.425 419.087 484.206 418.538 487.194C417.439 493.238 416.89 499.213 416.89 505.119C416.89 510.991 417.079 515.713 417.456 519.284C417.834 522.821 418.366 525.86 419.053 528.401C419.74 530.908 420.547 532.968 421.474 534.582C422.435 536.162 423.483 537.415 424.616 538.342C426.539 539.956 428.994 540.763 431.982 540.763C435.313 540.763 438.043 539.407 440.172 536.694C442.678 533.569 443.897 529.105 443.829 523.302ZM478.597 461.079C479.421 461.079 480.177 461.422 480.863 462.109C481.55 462.796 482.083 464.238 482.46 466.436C482.872 468.599 483.473 471.707 484.263 475.759C485.087 479.811 485.997 484.138 486.993 488.739C487.989 493.341 489.036 498.097 490.135 503.007C491.234 507.883 492.333 512.622 493.432 517.224C496.076 528.006 498.136 535.887 499.613 540.866C499.956 542.137 499.853 543.15 499.304 543.905C498.788 544.66 498.205 545.038 497.552 545.038C496.9 545.038 496.299 544.849 495.749 544.472C495.234 544.094 494.771 542.978 494.359 541.124C493.947 539.269 493.277 536.265 492.35 532.11C491.423 527.955 490.427 523.49 489.362 518.717C489.328 518.511 489.294 518.322 489.259 518.151C486.924 518.048 483.628 517.996 479.37 517.996C474.356 517.996 470.527 518.065 467.883 518.202C467.849 518.408 467.815 518.614 467.78 518.82C465.686 528.916 464.14 536.728 463.144 542.257C462.801 544.008 461.891 544.884 460.415 544.884C458.869 544.884 457.925 544.128 457.582 542.617C457.479 542.171 457.582 541.467 457.891 540.505C458.2 539.544 458.646 537.896 459.23 535.561C459.848 533.191 460.5 530.496 461.187 527.474C461.908 524.418 462.664 521.087 463.454 517.481C464.243 513.875 465.05 510.167 465.874 506.355C466.699 502.544 467.523 498.715 468.347 494.869C469.171 490.988 469.961 487.245 470.716 483.64C471.472 480.034 472.176 476.652 472.828 473.493C473.515 470.333 474.064 467.827 474.476 465.972C475.129 462.71 476.502 461.079 478.597 461.079ZM468.862 513.412C471.472 513.549 474.991 513.618 479.421 513.618C483.096 513.618 486.032 513.566 488.229 513.463C487.508 510.339 486.787 507.128 486.066 503.831C484.933 498.715 483.851 493.753 482.821 488.945C481.104 481.082 479.627 474.179 478.391 468.239C477.601 472.188 476.468 477.562 474.991 484.361C473.068 493.427 471.609 500.329 470.613 505.067C470.029 507.918 469.446 510.699 468.862 513.412ZM516.662 520.675C516.937 528.47 517.16 535.234 517.332 540.969C517.366 542.137 517.074 543.012 516.456 543.596C515.838 544.145 515.168 544.42 514.447 544.42C513.76 544.42 513.142 544.163 512.593 543.647C512.078 543.098 511.82 542.291 511.82 541.227V502.492C511.82 489.1 511.494 477.081 510.842 466.436C510.739 464.925 511.151 463.878 512.078 463.294C512.455 463.054 512.85 462.916 513.262 462.882C513.675 462.813 514.584 462.573 515.992 462.161C519.529 461.165 523.032 460.667 526.5 460.667C530.003 460.667 532.887 461.062 535.154 461.852C537.454 462.607 539.412 463.775 541.026 465.354C544.46 468.72 546.176 473.682 546.176 480.24C546.176 488.688 542.846 496.843 536.184 504.707C535.119 505.977 533.986 507.231 532.784 508.467C536.149 518.769 540.098 529.277 544.631 539.99C545.455 541.845 545.043 543.201 543.395 544.06C542.983 544.266 542.502 544.369 541.953 544.369C540.717 544.369 539.841 543.665 539.326 542.257C538.227 539.063 537.231 536.007 536.338 533.088C535.446 530.135 534.57 527.268 533.711 524.486C532.2 519.473 530.775 515.18 529.436 511.609C525.659 514.94 521.401 517.962 516.662 520.675ZM516.507 515.781C521.933 512.622 527.015 508.33 531.754 502.904C538.107 495.521 541.283 488.121 541.283 480.704C541.283 473.012 538.588 468.05 533.196 465.818C530.243 464.582 526.483 464.41 521.916 465.303C519.753 465.715 517.984 466.264 516.611 466.951C516.164 477.287 515.941 485.958 515.941 492.963C515.941 500.415 515.941 504.432 515.941 505.016C515.975 505.565 515.992 506.08 515.992 506.561C516.027 507.008 516.061 507.488 516.095 508.003C516.13 508.484 516.164 509.188 516.198 510.115C516.267 511.042 516.336 512.244 516.404 513.721C516.439 514.339 516.473 515.026 516.507 515.781ZM566.728 461.285C567.69 461.285 573.871 461.148 585.272 460.873C586.851 460.873 587.933 461.474 588.517 462.676C588.654 463.019 588.723 463.414 588.723 463.861C588.723 464.307 588.465 464.771 587.95 465.251C587.435 465.698 586.473 465.904 585.066 465.869C583.658 465.835 582.284 465.784 580.945 465.715C579.64 465.646 578.421 465.595 577.288 465.56C575.262 465.492 573.528 465.474 572.085 465.509C571.811 473.407 571.673 481.974 571.673 491.212C571.673 501.101 571.673 507.883 571.673 511.558C571.708 515.198 571.759 518.683 571.828 522.014C571.931 530.53 572.034 536.848 572.137 540.969C572.171 542.137 571.896 543.012 571.313 543.596C570.763 544.145 570.145 544.42 569.458 544.42C568.806 544.42 568.154 544.163 567.501 543.647C566.883 543.098 566.574 542.291 566.574 541.227L566.522 534.479L567.038 485.288C567.038 476.12 566.917 469.526 566.677 465.509C564.857 465.474 562.694 465.543 560.187 465.715C557.234 465.921 555.087 466.075 553.748 466.178C552.443 466.247 551.516 466.024 550.967 465.509C550.417 464.994 550.143 464.41 550.143 463.758C550.143 463.071 550.417 462.401 550.967 461.749C551.516 461.096 552.392 460.804 553.594 460.873C554.83 460.907 555.894 460.942 556.787 460.976C557.68 461.01 558.453 461.045 559.105 461.079C559.792 461.113 560.393 461.148 560.908 461.182C561.423 461.216 561.938 461.251 562.453 461.285C563.003 461.285 563.621 461.285 564.308 461.285H566.728ZM622.564 471.999C622.53 473.441 622.495 475.107 622.461 476.995C622.461 478.85 622.461 486.37 622.461 499.556C622.461 512.742 622.667 526.615 623.079 541.175C623.113 542.274 622.787 543.115 622.1 543.699C621.448 544.283 620.744 544.575 619.988 544.575C619.267 544.575 618.615 544.317 618.031 543.802C617.482 543.287 617.241 542.137 617.31 540.351C617.379 538.565 617.447 536.093 617.516 532.934C617.585 529.774 617.653 526.409 617.722 522.838C617.859 515.764 617.928 509.171 617.928 503.059C617.928 496.912 617.911 492.139 617.877 488.739C617.877 485.305 617.842 482.146 617.774 479.262C617.671 472.875 617.482 467.775 617.207 463.964C617.104 462.865 617.293 462.058 617.774 461.543C618.289 460.993 618.941 460.718 619.731 460.718C620.521 460.718 621.259 460.993 621.946 461.543C622.633 462.058 622.942 462.951 622.873 464.221C622.839 465.492 622.787 466.745 622.718 467.981C622.684 469.217 622.633 470.557 622.564 471.999ZM639.819 520.932C641.021 520.932 641.777 521.396 642.086 522.323C642.395 523.25 642.549 524.778 642.549 526.907C642.549 529.036 642.841 531.028 643.425 532.882C644.009 534.736 644.816 536.299 645.846 537.569C647.94 540.111 650.842 541.381 654.551 541.381C658.259 541.381 661.213 540.025 663.41 537.312C665.608 534.565 666.707 530.633 666.707 525.516C666.707 518.683 663.805 512.605 658.002 507.282C656.354 505.771 654.654 504.278 652.902 502.801C651.186 501.325 649.503 499.796 647.855 498.217C646.206 496.637 644.73 494.886 643.425 492.963C640.575 488.739 639.15 483.932 639.15 478.541C639.15 473.012 640.781 468.548 644.043 465.148C647.271 461.783 651.323 460.1 656.199 460.1C660.388 460.1 663.822 461.508 666.501 464.324C669.488 467.552 670.862 472.016 670.621 477.716C670.587 477.991 670.57 478.283 670.57 478.592C670.604 478.901 670.57 479.485 670.467 480.343C670.398 481.202 670.038 481.974 669.385 482.661C668.767 483.314 668.08 483.64 667.325 483.64C666.604 483.64 665.986 483.314 665.471 482.661C664.956 481.974 664.784 481.082 664.956 479.983C665.402 477.476 665.625 475.587 665.625 474.317C665.625 473.012 665.385 471.776 664.904 470.608C664.458 469.441 663.805 468.41 662.947 467.518C661.092 465.629 658.689 464.685 655.735 464.685C652.473 464.685 649.812 465.801 647.752 468.033C645.485 470.505 644.352 473.544 644.352 477.15C644.352 480.755 644.747 483.674 645.537 485.906C646.327 488.104 647.357 490.096 648.627 491.881C649.932 493.667 651.409 495.298 653.057 496.775C654.705 498.251 656.371 499.711 658.053 501.153C659.77 502.595 661.453 504.089 663.101 505.634C664.749 507.145 666.226 508.828 667.531 510.682C670.381 514.871 671.806 519.696 671.806 525.156C671.806 531.543 670.158 536.642 666.861 540.454C663.599 544.231 659.238 546.12 653.778 546.12C648.696 546.12 644.558 544.163 641.365 540.248C638.343 536.574 636.832 532.436 636.832 527.834C636.832 523.233 637.828 520.932 639.819 520.932ZM709.562 516.296L709.665 534.582C709.665 536.23 709.665 537.638 709.665 538.806C709.699 539.321 709.717 539.767 709.717 540.145C718.37 540.145 724.122 540.008 726.972 539.733C729.925 539.424 731.642 539.338 732.123 539.475C732.604 539.613 733.016 539.836 733.359 540.145C734.046 540.763 734.389 541.45 734.389 542.205C734.389 542.926 734.063 543.562 733.411 544.111C732.758 544.626 731.848 544.849 730.681 544.781C725.049 544.334 719.967 544.266 715.434 544.575C710.901 544.849 708.36 545.021 707.811 545.09C707.261 545.193 706.763 545.193 706.317 545.09C705.905 545.021 705.527 544.849 705.184 544.575C704.394 543.991 704.033 543.132 704.102 541.999C704.617 532.075 704.875 521.104 704.875 509.085C704.875 497.032 704.875 489.46 704.875 486.37C704.909 483.245 704.926 480.395 704.926 477.819C704.858 472.291 704.737 468.393 704.566 466.127C704.394 463.826 704.428 462.453 704.669 462.006C704.943 461.56 705.27 461.234 705.647 461.028C706.162 460.787 706.815 460.736 707.605 460.873C709.047 461.113 710.953 461.234 713.322 461.234C717.889 461.234 720.997 461.148 722.645 460.976C724.328 460.77 725.41 460.753 725.89 460.925C726.371 461.062 726.766 461.268 727.075 461.543C727.762 462.092 728.105 462.762 728.105 463.551C728.105 464.341 727.796 464.994 727.178 465.509C726.56 466.024 725.719 466.264 724.654 466.23C723.59 466.161 722.456 466.093 721.255 466.024C720.053 465.921 718.765 465.835 717.391 465.766C714.507 465.663 712 465.698 709.871 465.869C709.871 468.857 709.854 471.827 709.82 474.78C709.785 478.283 709.751 481.837 709.717 485.443C709.614 495.126 709.562 502.269 709.562 506.87C713.854 506.87 717.014 506.767 719.04 506.561C721.237 506.321 722.611 506.424 723.16 506.87C723.744 507.317 724.036 507.918 724.036 508.673C724.036 510.562 722.268 511.472 718.731 511.403C718.009 511.369 717.357 511.352 716.773 511.352L712.601 511.3H709.562V516.296ZM794.654 479.983L794.706 498.577C794.706 511.558 794.981 525.825 795.53 541.381C795.564 542.48 795.273 543.287 794.654 543.802C794.071 544.317 793.401 544.575 792.646 544.575C791.89 544.575 791.203 544.283 790.585 543.699C789.967 543.115 789.658 542.274 789.658 541.175C790.173 525.722 790.431 512.845 790.431 502.544V475.862C790.431 473.87 790.414 471.999 790.379 470.248C789.624 473.166 788.645 476.961 787.443 481.631C784.696 491.898 782.773 499.007 781.674 502.956C780.575 506.87 779.477 510.733 778.378 514.545C776.111 522.409 773.999 529.311 772.042 535.252C771.836 535.938 771.424 536.453 770.806 536.797C770.222 537.14 769.656 537.312 769.106 537.312C768.042 537.312 767.32 536.625 766.943 535.252C766.771 534.702 766.359 533.38 765.707 531.285C765.088 529.156 764.299 526.547 763.337 523.456C762.41 520.331 761.363 516.846 760.195 513C759.062 509.119 757.877 505.153 756.641 501.101C755.439 497.049 754.254 493.032 753.087 489.048C751.919 485.065 750.855 481.391 749.893 478.025C749.104 475.244 748.434 472.84 747.885 470.814L747.988 483.588C747.988 499.144 748.142 512.004 748.451 522.168C748.794 532.333 748.983 538.239 749.018 539.887C749.052 541.536 748.966 542.549 748.76 542.926C748.588 543.304 748.348 543.613 748.039 543.854C746.7 544.987 745.378 544.952 744.073 543.751C743.455 543.167 743.18 542.137 743.249 540.66C743.352 539.183 743.438 537.346 743.506 535.149C743.575 532.917 743.626 530.564 743.661 528.092C743.798 522.254 743.867 516.846 743.867 511.867L743.249 464.994C743.249 463.448 743.609 462.367 744.33 461.749C745.052 461.096 745.893 460.77 746.854 460.77C748.674 460.77 749.928 461.869 750.614 464.067C750.683 464.273 750.855 464.891 751.13 465.921C751.439 466.917 751.834 468.239 752.314 469.887C752.795 471.501 753.344 473.39 753.963 475.553C754.615 477.682 755.302 479.983 756.023 482.455C756.744 484.928 757.499 487.52 758.289 490.233C761.036 499.676 764.831 512.605 769.673 529.019C772.214 521.773 776.901 505.342 783.735 479.725C785.074 474.643 786.413 469.458 787.752 464.17C788.37 461.8 789.795 460.615 792.027 460.615C792.92 460.615 793.624 461.062 794.139 461.955C794.689 462.813 794.929 464.067 794.86 465.715C794.723 468.016 794.654 472.772 794.654 479.983ZM817.318 521.859C817.593 530.135 817.799 536.505 817.936 540.969C817.971 542.137 817.679 543.012 817.061 543.596C816.477 544.145 815.824 544.42 815.103 544.42C814.417 544.42 813.798 544.163 813.249 543.647C812.7 543.098 812.425 542.24 812.425 541.072V529.431L812.373 513.463V499.144C812.373 489.804 812.288 483.863 812.116 481.322C811.979 478.781 811.875 476.858 811.807 475.553C811.738 474.248 811.652 472.926 811.549 471.587C811.446 470.213 811.343 468.874 811.24 467.569C811.172 466.264 811.257 465.371 811.498 464.891C811.772 464.41 812.099 464.067 812.476 463.861C812.854 463.62 813.249 463.466 813.661 463.397C814.073 463.328 814.949 463.122 816.288 462.779C820.512 461.749 824.255 461.234 827.517 461.234C830.779 461.234 833.543 461.646 835.81 462.47C838.076 463.294 840.016 464.547 841.63 466.23C845.064 469.767 846.781 474.815 846.781 481.373C846.781 490.302 843.656 498.492 837.407 505.943C832.359 511.952 825.663 517.258 817.318 521.859ZM817.164 516.966C833.75 507.969 842.042 496.259 842.042 481.837C842.042 473.905 839.295 468.805 833.801 466.539C829.715 464.856 824.753 465.011 818.915 467.003C818.228 467.243 817.576 467.483 816.958 467.724C816.717 473.733 816.597 479.914 816.597 486.267V501.822C816.597 502.475 816.614 503.11 816.649 503.728C816.683 504.346 816.7 505.016 816.7 505.737C816.734 506.424 816.769 507.334 816.803 508.467C816.872 509.566 816.941 510.957 817.009 512.639C817.044 513.841 817.095 515.283 817.164 516.966ZM864.552 461.285C865.513 461.285 871.694 461.148 883.095 460.873C884.674 460.873 885.756 461.474 886.34 462.676C886.477 463.019 886.546 463.414 886.546 463.861C886.546 464.307 886.288 464.771 885.773 465.251C885.258 465.698 884.297 465.904 882.889 465.869C881.481 465.835 880.107 465.784 878.768 465.715C877.463 465.646 876.244 465.595 875.111 465.56C873.085 465.492 871.351 465.474 869.909 465.509C869.634 473.407 869.497 481.974 869.497 491.212C869.497 501.101 869.497 507.883 869.497 511.558C869.531 515.198 869.582 518.683 869.651 522.014C869.754 530.53 869.857 536.848 869.96 540.969C869.994 542.137 869.72 543.012 869.136 543.596C868.587 544.145 867.968 544.42 867.282 544.42C866.629 544.42 865.977 544.163 865.324 543.647C864.706 543.098 864.397 542.291 864.397 541.227L864.346 534.479L864.861 485.288C864.861 476.12 864.741 469.526 864.5 465.509C862.68 465.474 860.517 465.543 858.01 465.715C855.057 465.921 852.911 466.075 851.572 466.178C850.267 466.247 849.339 466.024 848.79 465.509C848.241 464.994 847.966 464.41 847.966 463.758C847.966 463.071 848.241 462.401 848.79 461.749C849.339 461.096 850.215 460.804 851.417 460.873C852.653 460.907 853.718 460.942 854.611 460.976C855.503 461.01 856.276 461.045 856.928 461.079C857.615 461.113 858.216 461.148 858.731 461.182C859.246 461.216 859.761 461.251 860.276 461.285C860.826 461.285 861.444 461.285 862.131 461.285H864.552ZM914.515 526.341L914.876 541.33C914.876 542.875 914.137 543.922 912.661 544.472C912.283 544.609 911.837 544.678 911.322 544.678C910.806 544.678 910.257 544.403 909.673 543.854C909.09 543.27 908.849 542.377 908.952 541.175C909.055 539.939 909.175 538.72 909.313 537.518C909.45 536.316 909.57 535.097 909.673 533.861C909.914 530.976 910.034 528.727 910.034 527.113C910.034 525.499 910.017 524.109 909.982 522.941C909.948 521.773 909.897 520.572 909.828 519.335C909.793 518.34 909.742 517.224 909.673 515.987C908.54 513.103 907.287 510.029 905.913 506.767C904.162 502.509 902.342 498.079 900.453 493.478C892.693 474.798 888.812 464.685 888.812 463.139C888.812 462.281 889.07 461.594 889.585 461.079C890.1 460.564 890.752 460.289 891.542 460.255C892.366 460.221 893.002 460.495 893.448 461.079C893.894 461.628 894.547 463.414 895.405 466.436C896.298 469.458 897.603 473.355 899.32 478.128C901.037 482.867 902.771 487.4 904.522 491.727C906.823 497.461 909.416 503.557 912.3 510.012C912.815 508.604 913.365 507.111 913.949 505.531C914.944 502.956 915.957 500.26 916.988 497.444C918.052 494.594 919.117 491.692 920.181 488.739C921.28 485.752 922.327 482.833 923.323 479.983C925.727 473.012 927.255 468.376 927.907 466.075C928.56 463.74 929.109 462.144 929.556 461.285C930.002 460.392 930.672 459.946 931.564 459.946C933.213 459.946 934.037 460.753 934.037 462.367C934.037 463.603 932.801 467.415 930.328 473.802C927.89 480.189 926.311 484.395 925.589 486.421C924.903 488.413 924.233 490.302 923.581 492.087C922.928 493.839 922.224 495.727 921.469 497.753C920.713 499.745 919.924 501.805 919.099 503.934C918.31 506.029 917.554 508.038 916.833 509.961C916.009 512.021 915.322 513.755 914.773 515.163C914.601 521.276 914.515 525.001 914.515 526.341ZM970.505 538.136C970.952 538.479 971.312 538.926 971.587 539.475C971.861 540.025 971.999 540.694 971.999 541.484C971.999 542.274 971.844 542.961 971.535 543.544C971.226 544.094 970.814 544.54 970.299 544.884C969.406 545.502 968.325 545.811 967.054 545.811C965.234 545.811 963.946 544.987 963.191 543.338C962.916 542.789 962.779 542.154 962.779 541.433C962.779 539.372 963.775 538.016 965.766 537.363C966.316 537.157 966.848 537.054 967.363 537.054C967.912 537.054 968.462 537.14 969.011 537.312C969.561 537.484 970.059 537.758 970.505 538.136ZM969.887 495.847V510.476C969.887 517.035 970.024 521.773 970.299 524.692C970.402 525.791 970.162 526.632 969.578 527.216C968.994 527.8 968.359 528.092 967.672 528.092C966.985 528.092 966.402 527.851 965.921 527.371C965.44 526.856 965.251 525.602 965.354 523.611C965.457 520.829 965.509 516.211 965.509 509.755C965.509 503.265 965.492 497.822 965.457 493.427C965.423 489.031 965.371 484.722 965.303 480.498C965.165 471.673 964.856 463.998 964.376 457.473C964.273 456.134 964.582 455.138 965.303 454.486C966.058 453.834 966.848 453.507 967.672 453.507C968.496 453.507 969.252 453.851 969.939 454.537C970.625 455.19 970.9 456.409 970.763 458.195C970.625 459.98 970.488 462.367 970.351 465.354C970.248 468.342 970.162 471.535 970.093 474.935C969.956 481.734 969.887 488.705 969.887 495.847ZM996.053 538.136C996.5 538.479 996.86 538.926 997.135 539.475C997.41 540.025 997.547 540.694 997.547 541.484C997.547 542.274 997.393 542.961 997.084 543.544C996.774 544.094 996.362 544.54 995.847 544.884C994.955 545.502 993.873 545.811 992.602 545.811C990.782 545.811 989.495 544.987 988.739 543.338C988.464 542.789 988.327 542.154 988.327 541.433C988.327 539.372 989.323 538.016 991.315 537.363C991.864 537.157 992.396 537.054 992.911 537.054C993.461 537.054 994.01 537.14 994.56 537.312C995.109 537.484 995.607 537.758 996.053 538.136ZM995.435 495.847V510.476C995.435 517.035 995.573 521.773 995.847 524.692C995.95 525.791 995.71 526.632 995.126 527.216C994.542 527.8 993.907 528.092 993.22 528.092C992.534 528.092 991.95 527.851 991.469 527.371C990.988 526.856 990.799 525.602 990.903 523.611C991.006 520.829 991.057 516.211 991.057 509.755C991.057 503.265 991.04 497.822 991.006 493.427C990.971 489.031 990.92 484.722 990.851 480.498C990.714 471.673 990.405 463.998 989.924 457.473C989.821 456.134 990.13 455.138 990.851 454.486C991.606 453.834 992.396 453.507 993.22 453.507C994.045 453.507 994.8 453.851 995.487 454.537C996.174 455.19 996.448 456.409 996.311 458.195C996.174 459.98 996.036 462.367 995.899 465.354C995.796 468.342 995.71 471.535 995.641 474.935C995.504 481.734 995.435 488.705 995.435 495.847ZM1021.6 538.136C1022.05 538.479 1022.41 538.926 1022.68 539.475C1022.96 540.025 1023.1 540.694 1023.1 541.484C1023.1 542.274 1022.94 542.961 1022.63 543.544C1022.32 544.094 1021.91 544.54 1021.4 544.884C1020.5 545.502 1019.42 545.811 1018.15 545.811C1016.33 545.811 1015.04 544.987 1014.29 543.338C1014.01 542.789 1013.88 542.154 1013.88 541.433C1013.88 539.372 1014.87 538.016 1016.86 537.363C1017.41 537.157 1017.94 537.054 1018.46 537.054C1019.01 537.054 1019.56 537.14 1020.11 537.312C1020.66 537.484 1021.16 537.758 1021.6 538.136ZM1020.98 495.847V510.476C1020.98 517.035 1021.12 521.773 1021.4 524.692C1021.5 525.791 1021.26 526.632 1020.67 527.216C1020.09 527.8 1019.46 528.092 1018.77 528.092C1018.08 528.092 1017.5 527.851 1017.02 527.371C1016.54 526.856 1016.35 525.602 1016.45 523.611C1016.55 520.829 1016.61 516.211 1016.61 509.755C1016.61 503.265 1016.59 497.822 1016.55 493.427C1016.52 489.031 1016.47 484.722 1016.4 480.498C1016.26 471.673 1015.95 463.998 1015.47 457.473C1015.37 456.134 1015.68 455.138 1016.4 454.486C1017.15 453.834 1017.94 453.507 1018.77 453.507C1019.59 453.507 1020.35 453.851 1021.04 454.537C1021.72 455.19 1022 456.409 1021.86 458.195C1021.72 459.98 1021.58 462.367 1021.45 465.354C1021.34 468.342 1021.26 471.535 1021.19 474.935C1021.05 481.734 1020.98 488.705 1020.98 495.847Z" fill="#D51C27"/>
</svg>
