<svg width="20" height="20" viewBox="0 0 20 20" fill="none" xmlns="http://www.w3.org/2000/svg">
<path d="M11.125 14.9321C11.125 15.1546 11.059 15.3721 10.9354 15.5571C10.8118 15.7422 10.6361 15.8863 10.4305 15.9715C10.225 16.0566 9.99876 16.0789 9.78053 16.0355C9.5623 15.9921 9.36184 15.885 9.20451 15.7276C9.04718 15.5703 8.94003 15.3698 8.89662 15.1516C8.85321 14.9334 8.87549 14.7072 8.96064 14.5016C9.04579 14.296 9.18998 14.1203 9.37499 13.9967C9.55999 13.8731 9.7775 13.8071 10 13.8071C10.2984 13.8071 10.5845 13.9257 10.7955 14.1366C11.0065 14.3476 11.125 14.6338 11.125 14.9321ZM10 4.80713C7.93188 4.80713 6.25 6.32119 6.25 8.18213V8.55713C6.25 8.75604 6.32902 8.94681 6.46967 9.08746C6.61033 9.22811 6.80109 9.30713 7 9.30713C7.19892 9.30713 7.38968 9.22811 7.53033 9.08746C7.67099 8.94681 7.75 8.75604 7.75 8.55713V8.18213C7.75 7.15088 8.75969 6.30713 10 6.30713C11.2403 6.30713 12.25 7.15088 12.25 8.18213C12.25 9.21338 11.2403 10.0571 10 10.0571C9.80109 10.0571 9.61033 10.1361 9.46967 10.2768C9.32902 10.4175 9.25 10.6082 9.25 10.8071V11.5571C9.25 11.756 9.32902 11.9468 9.46967 12.0875C9.61033 12.2281 9.80109 12.3071 10 12.3071C10.1989 12.3071 10.3897 12.2281 10.5303 12.0875C10.671 11.9468 10.75 11.756 10.75 11.5571V11.4896C12.46 11.1756 13.75 9.8115 13.75 8.18213C13.75 6.32119 12.0681 4.80713 10 4.80713ZM19.75 10.0571C19.75 11.9855 19.1782 13.8706 18.1068 15.4739C17.0355 17.0773 15.5127 18.327 13.7312 19.065C11.9496 19.8029 9.98919 19.996 8.09787 19.6198C6.20656 19.2436 4.46928 18.315 3.10571 16.9514C1.74215 15.5879 0.813554 13.8506 0.437348 11.9593C0.061142 10.0679 0.254225 8.10754 0.992179 6.32596C1.73013 4.54439 2.97982 3.02164 4.58319 1.9503C6.18657 0.878956 8.07164 0.307129 10 0.307129C12.585 0.309859 15.0634 1.33796 16.8913 3.16585C18.7192 4.99374 19.7473 7.47211 19.75 10.0571ZM18.25 10.0571C18.25 8.42543 17.7661 6.83038 16.8596 5.47367C15.9531 4.11697 14.6646 3.05955 13.1571 2.43512C11.6497 1.8107 9.99085 1.64732 8.39051 1.96565C6.79017 2.28398 5.32016 3.06971 4.16637 4.2235C3.01259 5.37728 2.22685 6.84729 1.90853 8.44763C1.5902 10.048 1.75358 11.7068 2.378 13.2143C3.00242 14.7218 4.05984 16.0102 5.41655 16.9168C6.77326 17.8233 8.36831 18.3071 10 18.3071C12.1873 18.3046 14.2843 17.4347 15.8309 15.888C17.3775 14.3414 18.2475 12.2444 18.25 10.0571Z" fill="#3F3F3F"/>
</svg>
