<svg width="73" height="47" viewBox="0 0 73 47" fill="none" xmlns="http://www.w3.org/2000/svg">
<g clip-path="url(#clip0_1331_3088)">
<path d="M47.8963 15.2322V42.3222C47.8963 42.6087 47.7825 42.8834 47.5799 43.0859C47.3774 43.2885 47.1027 43.4022 46.8163 43.4022H2.98625C2.69982 43.4022 2.42511 43.2885 2.22257 43.0859C2.02004 42.8834 1.90625 42.6087 1.90625 42.3222V13.6066C1.9064 13.4651 1.93447 13.325 1.98887 13.1943C2.04327 13.0637 2.12291 12.9451 2.22324 12.8452C2.32358 12.7454 2.44262 12.6664 2.57355 12.6127C2.70448 12.559 2.84473 12.5316 2.98625 12.5322H45.1963C45.9123 12.5322 46.5991 12.8167 47.1054 13.323C47.6118 13.8294 47.8963 14.5162 47.8963 15.2322Z" fill="#5C8EFF"/>
<path d="M13.1094 24.7728V25.6965H14.6569C14.9539 25.7096 15.2344 25.8368 15.4399 26.0516C15.6455 26.2664 15.7602 26.5523 15.7602 26.8496C15.7602 27.1469 15.6455 27.4327 15.4399 27.6476C15.2344 27.8624 14.9539 27.9896 14.6569 28.0027H13.1094V29.5029C13.1235 29.6563 13.104 29.8108 13.0523 29.9559C13.0005 30.1009 12.9178 30.233 12.8099 30.3428C12.702 30.4527 12.5714 30.5377 12.4273 30.592C12.2832 30.6463 12.129 30.6685 11.9754 30.6572C11.8218 30.6686 11.6675 30.6464 11.5233 30.5922C11.3791 30.5379 11.2484 30.4529 11.1404 30.3431C11.0324 30.2332 10.9496 30.1012 10.8978 29.9561C10.8459 29.811 10.8263 29.6563 10.8403 29.5029V23.6186C10.8263 23.4652 10.8459 23.3105 10.8978 23.1654C10.9496 23.0203 11.0324 22.8883 11.1404 22.7784C11.2484 22.6686 11.3791 22.5836 11.5233 22.5293C11.6675 22.4751 11.8218 22.4529 11.9754 22.4643H15.8938C16.1908 22.4775 16.4713 22.6047 16.6769 22.8195C16.8824 23.0343 16.9971 23.3202 16.9971 23.6175C16.9971 23.9148 16.8824 24.2006 16.6769 24.4154C16.4713 24.6302 16.1908 24.7575 15.8938 24.7706L13.1094 24.7728ZM19.9703 27.6579V29.5046C19.9736 29.6557 19.9468 29.8061 19.8912 29.9467C19.8357 30.0873 19.7527 30.2154 19.6469 30.3235C19.5412 30.4316 19.415 30.5175 19.2756 30.5761C19.1363 30.6348 18.9866 30.665 18.8354 30.665C18.6842 30.665 18.5345 30.6348 18.3952 30.5761C18.2558 30.5175 18.1296 30.4316 18.0239 30.3235C17.9182 30.2154 17.8351 30.0873 17.7796 29.9467C17.7241 29.8061 17.6972 29.6557 17.7006 29.5046V23.6186C17.6866 23.4652 17.7062 23.3105 17.758 23.1654C17.8098 23.0203 17.8926 22.8883 18.0007 22.7784C18.1087 22.6686 18.2394 22.5836 18.3836 22.5293C18.5278 22.4751 18.682 22.4529 18.8357 22.4643H21.0013C23.1675 22.4643 24.0951 23.5033 24.0951 25.0614C24.112 25.4548 24.0136 25.8446 23.8121 26.1828C23.6105 26.5211 23.3145 26.7931 22.9605 26.9655V27.078L23.9921 28.4634C24.2133 28.7701 24.3548 29.1269 24.4039 29.5018C24.4149 29.6635 24.3896 29.8256 24.3301 29.9763C24.2705 30.1271 24.1782 30.2627 24.0596 30.3732C23.9411 30.4838 23.7994 30.5665 23.6449 30.6154C23.4904 30.6643 23.3269 30.6782 23.1664 30.656C22.9807 30.6275 22.8028 30.5617 22.6432 30.4625C22.4837 30.3633 22.346 30.2328 22.2383 30.0789L20.589 27.6579H19.9703ZM21.0013 25.6965C21.0914 25.7079 21.183 25.7 21.2698 25.6733C21.3566 25.6466 21.4368 25.6017 21.5049 25.5416C21.5731 25.4815 21.6277 25.4076 21.6651 25.3249C21.7025 25.2421 21.7218 25.1523 21.7218 25.0614C21.7218 24.9706 21.7025 24.8808 21.6651 24.798C21.6277 24.7152 21.5731 24.6413 21.5049 24.5812C21.4368 24.5211 21.3566 24.4763 21.2698 24.4496C21.183 24.4229 21.0914 24.4149 21.0013 24.4263H19.9703V25.6965H21.0013ZM27.5038 24.7728V25.4653H29.4636C29.7349 25.4716 29.9929 25.5838 30.1825 25.7779C30.3722 25.972 30.4783 26.2326 30.4783 26.5039C30.4783 26.7753 30.3722 27.0359 30.1825 27.23C29.9929 27.4241 29.7349 27.5363 29.4636 27.5426H27.5038V28.2373H30.3894C30.6865 28.2504 30.967 28.3776 31.1725 28.5924C31.378 28.8073 31.4927 29.0931 31.4927 29.3904C31.4927 29.6877 31.378 29.9736 31.1725 30.1884C30.967 30.4032 30.6865 30.5304 30.3894 30.5435H26.367C26.2134 30.555 26.0591 30.5328 25.9149 30.4785C25.7707 30.4243 25.64 30.3393 25.532 30.2294C25.424 30.1196 25.3411 29.9875 25.2893 29.8424C25.2375 29.6973 25.2179 29.5427 25.2319 29.3893V23.6186C25.2179 23.4652 25.2375 23.3105 25.2893 23.1654C25.3411 23.0203 25.424 22.8883 25.532 22.7784C25.64 22.6686 25.7707 22.5836 25.9149 22.5293C26.0591 22.4751 26.2134 22.4529 26.367 22.4643H30.2859C30.583 22.4775 30.8635 22.6047 31.069 22.8195C31.2745 23.0343 31.3892 23.3202 31.3892 23.6175C31.3892 23.9148 31.2745 24.2006 31.069 24.4154C30.8635 24.6302 30.583 24.7575 30.2859 24.7706L27.5038 24.7728ZM34.5683 24.7728V25.4653H36.528C36.7993 25.4716 37.0573 25.5838 37.247 25.7779C37.4366 25.972 37.5428 26.2326 37.5428 26.5039C37.5428 26.7753 37.4366 27.0359 37.247 27.23C37.0573 27.4241 36.7993 27.5363 36.528 27.5426H34.5683V28.2373H37.4567C37.7537 28.2504 38.0342 28.3776 38.2397 28.5924C38.4453 28.8073 38.56 29.0931 38.56 29.3904C38.56 29.6877 38.4453 29.9736 38.2397 30.1884C38.0342 30.4032 37.7537 30.5304 37.4567 30.5435H33.4343C33.2806 30.555 33.1263 30.5328 32.9821 30.4785C32.8379 30.4243 32.7073 30.3393 32.5992 30.2294C32.4912 30.1196 32.4084 29.9875 32.3566 29.8424C32.3047 29.6973 32.2851 29.5427 32.2991 29.3893V23.6186C32.2851 23.4652 32.3047 23.3105 32.3566 23.1654C32.4084 23.0203 32.4912 22.8883 32.5992 22.7784C32.7073 22.6686 32.8379 22.5836 32.9821 22.5293C33.1263 22.4751 33.2806 22.4529 33.4343 22.4643H37.3526C37.6496 22.4775 37.9301 22.6047 38.1357 22.8195C38.3412 23.0343 38.4559 23.3202 38.4559 23.6175C38.4559 23.9148 38.3412 24.2006 38.1357 24.4154C37.9301 24.6302 37.6496 24.7575 37.3526 24.7706L34.5683 24.7728Z" fill="#F7ECDA"/>
<path d="M71.0805 40.6237C71.0692 42.1369 70.7992 43.4025 69.2861 43.4025H50.9148C50.6465 43.4018 50.3894 43.2948 50.1997 43.1051C50.01 42.9154 49.9031 42.6583 49.9023 42.39V21.2569C49.9038 20.9893 50.0112 20.7332 50.2009 20.5446C50.3906 20.3559 50.6473 20.25 50.9148 20.25H58.3567C58.8664 20.2505 59.3641 20.4049 59.7847 20.6929C60.2052 20.981 60.529 21.3893 60.7136 21.8644C60.7136 21.8644 60.8767 22.3256 61.1355 23.0287C61.7992 24.8456 63.0761 28.2825 63.723 29.6381C64.1055 30.4369 65.658 31.2919 66.6817 31.725C67.8075 32.1407 68.8153 32.8241 69.618 33.7162H69.6236C70.0943 34.2859 70.429 34.9554 70.6023 35.6738C70.7875 36.5396 70.9115 37.4174 70.9736 38.3006C71.0467 39.24 71.0805 40.1287 71.0805 40.6237Z" fill="#4856B5"/>
<path d="M63.7234 29.6382H57.3897C57.0928 29.6456 56.8052 29.5348 56.59 29.3301C56.3748 29.1255 56.2497 28.8438 56.2422 28.5469V24.1144C56.246 23.9677 56.2788 23.8232 56.3386 23.6892C56.3984 23.5552 56.4841 23.4343 56.5907 23.3335C56.6973 23.2326 56.8227 23.1538 56.9598 23.1015C57.0969 23.0492 57.243 23.0245 57.3897 23.0288H61.1359C61.7997 24.8457 63.0766 28.2825 63.7234 29.6382Z" fill="#3A417C"/>
<path d="M70.9748 38.301H70.9692C70.4379 38.3029 69.9138 38.179 69.4396 37.9395C68.9655 37.7 68.5547 37.3516 68.241 36.9229C68.0005 36.6141 67.8272 36.2584 67.7322 35.8787C67.6373 35.4989 67.6228 35.1035 67.6898 34.7179C67.9767 33.666 69.5123 33.711 69.6192 33.7166H69.6248C70.0955 34.2863 70.4302 34.9557 70.6035 35.6741C70.7887 36.54 70.9127 37.4178 70.9748 38.301Z" fill="#F7ECDA"/>
<path d="M61.4547 46.9476C63.7036 46.9476 65.5267 45.1245 65.5267 42.8756C65.5267 40.6268 63.7036 38.8037 61.4547 38.8037C59.2059 38.8037 57.3828 40.6268 57.3828 42.8756C57.3828 45.1245 59.2059 46.9476 61.4547 46.9476Z" fill="#3A417C"/>
<path d="M61.4605 44.0855C62.129 44.0855 62.671 43.5436 62.671 42.875C62.671 42.2065 62.129 41.6646 61.4605 41.6646C60.792 41.6646 60.25 42.2065 60.25 42.875C60.25 43.5436 60.792 44.0855 61.4605 44.0855Z" fill="#FFB45A"/>
<path d="M47.8963 40.7021V42.3222C47.8963 42.6086 47.7825 42.8833 47.5799 43.0858C47.3774 43.2884 47.1027 43.4022 46.8163 43.4022H2.98625C2.69982 43.4022 2.42511 43.2884 2.22257 43.0858C2.02004 42.8833 1.90625 42.6086 1.90625 42.3222V40.7021H47.8963Z" fill="#4856B5"/>
<path d="M39.8415 46.9476C42.0903 46.9476 43.9134 45.1245 43.9134 42.8756C43.9134 40.6268 42.0903 38.8037 39.8415 38.8037C37.5926 38.8037 35.7695 40.6268 35.7695 42.8756C35.7695 45.1245 37.5926 46.9476 39.8415 46.9476Z" fill="#3A417C"/>
<path d="M39.8472 44.0855C40.5158 44.0855 41.0577 43.5436 41.0577 42.875C41.0577 42.2065 40.5158 41.6646 39.8472 41.6646C39.1787 41.6646 38.6367 42.2065 38.6367 42.875C38.6367 43.5436 39.1787 44.0855 39.8472 44.0855Z" fill="#FFB45A"/>
<path d="M10.3649 46.9476C12.6138 46.9476 14.4368 45.1245 14.4368 42.8756C14.4368 40.6268 12.6138 38.8037 10.3649 38.8037C8.11604 38.8037 6.29297 40.6268 6.29297 42.8756C6.29297 45.1245 8.11604 46.9476 10.3649 46.9476Z" fill="#3A417C"/>
<path d="M10.3746 44.0855C11.0431 44.0855 11.5851 43.5436 11.5851 42.875C11.5851 42.2065 11.0431 41.6646 10.3746 41.6646C9.70602 41.6646 9.16406 42.2065 9.16406 42.875C9.16406 43.5436 9.70602 44.0855 10.3746 44.0855Z" fill="#FFB45A"/>
<path d="M48.0639 8.04395H22.4701C22.2463 8.04395 22.0317 7.95505 21.8735 7.79682C21.7153 7.63858 21.6264 7.42397 21.6264 7.2002C21.6264 6.97642 21.7153 6.76181 21.8735 6.60357C22.0317 6.44534 22.2463 6.35645 22.4701 6.35645H48.0639C48.2877 6.35645 48.5023 6.44534 48.6605 6.60357C48.8187 6.76181 48.9076 6.97642 48.9076 7.2002C48.9076 7.42397 48.8187 7.63858 48.6605 7.79682C48.5023 7.95505 48.2877 8.04395 48.0639 8.04395ZM19.1772 8.04395H17.0347C16.8109 8.04395 16.5963 7.95505 16.4381 7.79682C16.2798 7.63858 16.1909 7.42397 16.1909 7.2002C16.1909 6.97642 16.2798 6.76181 16.4381 6.60357C16.5963 6.44534 16.8109 6.35645 17.0347 6.35645H19.1795C19.4033 6.35645 19.6179 6.44534 19.7761 6.60357C19.9344 6.76181 20.0233 6.97642 20.0233 7.2002C20.0233 7.42397 19.9344 7.63858 19.7761 7.79682C19.6179 7.95505 19.4033 8.04395 19.1795 8.04395H19.1772ZM34.3439 2.41895H8.75019C8.52641 2.41895 8.3118 2.33005 8.15357 2.17182C7.99533 2.01358 7.90644 1.79897 7.90644 1.5752C7.90644 1.35142 7.99533 1.13681 8.15357 0.978574C8.3118 0.820341 8.52641 0.731445 8.75019 0.731445H34.3439C34.5677 0.731445 34.7823 0.820341 34.9406 0.978574C35.0988 1.13681 35.1877 1.35142 35.1877 1.5752C35.1877 1.79897 35.0988 2.01358 34.9406 2.17182C34.7823 2.33005 34.5677 2.41895 34.3439 2.41895ZM5.45675 2.41895H3.3125C3.08872 2.41895 2.87411 2.33005 2.71588 2.17182C2.55764 2.01358 2.46875 1.79897 2.46875 1.5752C2.46875 1.35142 2.55764 1.13681 2.71588 0.978574C2.87411 0.820341 3.08872 0.731445 3.3125 0.731445H5.45675C5.68053 0.731445 5.89514 0.820341 6.05337 0.978574C6.2116 1.13681 6.3005 1.35142 6.3005 1.5752C6.3005 1.79897 6.2116 2.01358 6.05337 2.17182C5.89514 2.33005 5.68053 2.41895 5.45675 2.41895Z" fill="#4856B5"/>
</g>
<defs>
<clipPath id="clip0_1331_3088">
<rect width="72" height="46.8" fill="white" transform="translate(0.5)"/>
</clipPath>
</defs>
</svg>
