<svg width="44" height="47" viewBox="0 0 44 47" fill="none" xmlns="http://www.w3.org/2000/svg">
<path d="M43.127 13.7344V33.3799C43.1256 33.9683 42.9648 34.5456 42.6614 35.0515C42.358 35.5573 41.923 35.9732 41.402 36.2556L23.1568 46.1503C22.6693 46.4171 22.1214 46.5571 21.5645 46.5571C21.0075 46.5571 20.4596 46.4171 19.9721 46.1503L1.72695 36.2556C1.2059 35.9732 0.770953 35.5573 0.46752 35.0515C0.164087 34.5456 0.00330132 33.9683 0.00195312 33.3799V13.7344C0.00330132 13.1459 0.164087 12.5686 0.46752 12.0628C0.770953 11.5569 1.2059 11.1411 1.72695 10.8586L19.9721 0.963976C20.4596 0.697111 21.0075 0.557129 21.5645 0.557129C22.1214 0.557129 22.6693 0.697111 23.1568 0.963976L41.402 10.8586C41.923 11.1411 42.358 11.5569 42.6614 12.0628C42.9648 12.5686 43.1256 13.1459 43.127 13.7344Z" fill="#3F3F3F"/>
</svg>
