<svg width="80" height="80" viewBox="0 0 80 80" fill="none" xmlns="http://www.w3.org/2000/svg">
<path d="M77.1457 40.0001C77.1457 60.5158 60.5144 77.1471 39.9986 77.1471C19.4829 77.1471 2.85156 60.5158 2.85156 40.0001C2.85156 19.4843 19.4829 2.85303 39.9986 2.85303C60.5144 2.85303 77.1457 19.4843 77.1457 40.0001Z" fill="#3F3F3F"/>
<path d="M77.1457 40.0001C77.1457 60.5158 60.5144 77.1471 39.9986 77.1471C19.4829 77.1471 2.85156 60.5158 2.85156 40.0001C2.85156 19.4843 19.4829 2.85303 39.9986 2.85303C60.5144 2.85303 77.1457 19.4843 77.1457 40.0001Z" stroke="black"/>
<path d="M77.1457 40.0001C77.1457 60.5158 60.5144 77.1471 39.9986 77.1471C19.4829 77.1471 2.85156 60.5158 2.85156 40.0001C2.85156 19.4843 19.4829 2.85303 39.9986 2.85303C60.5144 2.85303 77.1457 19.4843 77.1457 40.0001Z" stroke="black" stroke-opacity="0.2"/>
<path d="M13.7656 50.7645C13.7656 50.7645 16.1774 50.8821 20.5303 48.4704C24.8833 46.0586 29.5303 47.1763 29.5303 47.1763C29.5303 47.1763 35.4127 49.5292 37.4715 49.8821C39.4715 50.2351 43.7656 49.941 48.0597 49.4704C48.0597 49.4704 53.7068 47.9998 55.1774 51.4115C55.1774 51.4115 56.7068 50.941 59.2362 49.4115C59.2362 49.4115 71.295 42.2351 74.4715 44.588C74.4715 44.588 76.648 46.2939 73.4715 48.7645C73.4715 48.7645 60.4127 58.5292 52.4127 62.7645C52.4127 62.7645 49.648 64.0586 44.1186 68.9998C44.1186 68.9998 42.0597 70.1174 39.295 68.6468C39.295 68.6468 24.295 62.0586 17.4715 65.5292L13.7656 50.7645Z" fill="#F8CFA3"/>
<path opacity="0.3" d="M55.7661 52.5884C56.0602 56.706 46.7073 57.8237 46.7073 57.8237C45.3543 58.6472 43.3543 58.9413 43.3543 58.9413C41.7661 58.5884 34.2367 58.8237 34.2367 58.8237C29.9426 59.6472 27.6484 58.2354 27.6484 58.2354C27.6484 58.2354 29.4131 60.0001 33.5308 59.6472C33.5308 59.6472 40.2955 58.8825 42.0014 60.3531C42.0014 60.3531 44.8249 60.8825 47.119 58.8237C47.119 58.8237 48.472 57.8825 50.119 57.7648C50.119 57.7648 55.0602 56.9413 55.8249 54.1178L55.7661 52.5884Z" fill="#F1B97C"/>
<path d="M51.3548 50.1766L49.7665 50.4708C49.4136 50.5296 49.1195 50.8825 49.2371 51.2943L50.0018 55.2943C50.0607 55.6472 50.4136 55.9413 50.8254 55.8237L52.4136 55.5296C53.8842 55.2355 54.8842 53.8237 54.5901 52.3531C54.2371 50.8825 52.8254 49.8825 51.3548 50.1766ZM75.1195 46.7061C70.3548 47.3531 70.8254 50.5884 70.8254 50.5884L70.8842 50.7061C72.4724 49.5884 73.4136 48.8237 73.4136 48.8237C74.4724 48.0002 74.943 47.2943 75.1195 46.7061ZM18.0607 67.3531L15.1195 68.2355C13.7665 67.059 12.5312 65.7649 11.3548 64.4119L11.1783 64.2355L7.53125 49.4119L13.1195 47.9413L13.1783 48.2943L13.8254 50.7649L17.5312 65.4708L18.0607 67.3531Z" fill="#FCFCFC"/>
<path d="M11.3513 64.4116L11.1749 64.2351C7.58663 59.9998 4.88074 54.8822 3.41016 49.2939L7.23369 48.2939L7.5278 49.4116L11.3513 64.4116Z" fill="#4C525E"/>
<path d="M44.1193 27.7061V18.7061H42.2369V27.7061L31.5898 33.8825L32.531 35.4708L43.1781 29.3531L53.7663 35.4708L54.7075 33.8825L44.1193 27.7061Z" fill="#D1D1D3"/>
<path d="M43.1749 22.7648C37.8219 22.7648 33.4102 18.4118 33.4102 13.0001C33.4102 7.58829 37.7631 3.23535 43.1749 3.23535C48.5866 3.23535 52.9396 7.64712 52.9396 13.0001C52.9396 18.353 48.5278 22.7648 43.1749 22.7648Z" fill="#FCFCFC"/>
<path d="M43.1776 21.4705C47.8558 21.4705 51.6482 17.6781 51.6482 12.9999C51.6482 8.32171 47.8558 4.5293 43.1776 4.5293C38.4994 4.5293 34.707 8.32171 34.707 12.9999C34.707 17.6781 38.4994 21.4705 43.1776 21.4705Z" fill="#E9BB06"/>
<path d="M30.3525 44.5883C25.2348 44.5883 21.1172 40.4706 21.1172 35.353C21.1172 30.2353 25.2348 26.1177 30.3525 26.1177C35.4701 26.1177 39.5878 30.2353 39.5878 35.353C39.5878 40.4706 35.4701 44.5883 30.3525 44.5883ZM55.9407 44.5883C50.8231 44.5883 46.7054 40.4706 46.7054 35.353C46.7054 30.2353 50.8231 26.1177 55.9407 26.1177C61.0584 26.1177 65.176 30.2353 65.176 35.353C65.176 40.4706 61.0584 44.5883 55.9407 44.5883Z" fill="#FCFCFC"/>
<path d="M55.9416 43.4116C60.3924 43.4116 64.0005 39.8035 64.0005 35.3528C64.0005 30.902 60.3924 27.2939 55.9416 27.2939C51.4909 27.2939 47.8828 30.902 47.8828 35.3528C47.8828 39.8035 51.4909 43.4116 55.9416 43.4116Z" fill="#5E86C3"/>
<path d="M30.3518 43.4116C34.8026 43.4116 38.4106 39.8035 38.4106 35.3528C38.4106 30.902 34.8026 27.2939 30.3518 27.2939C25.901 27.2939 22.293 30.902 22.293 35.3528C22.293 39.8035 25.901 43.4116 30.3518 43.4116Z" fill="#5E86C3"/>
<path d="M32.06 34.2354C31.8835 35.1765 31.8835 36.0589 32.06 37.0001H28.707C28.8835 36.0589 28.8835 35.1765 28.707 34.2354H32.06Z" fill="#F1B97C"/>
<path d="M32.1749 36.1177L31.8219 43.2941C31.7043 43.2941 31.6455 43.353 31.5278 43.353H31.469C31.3513 43.353 31.2337 43.4118 31.0572 43.4118C30.8219 43.4118 30.5278 43.4706 30.2925 43.4706C30.0572 43.4706 29.7631 43.4706 29.5278 43.4118C29.4102 43.4118 29.2925 43.4118 29.116 43.353H29.0572C28.9396 43.353 28.8807 43.2941 28.7631 43.2941L28.4102 36.1177L28.7043 36.1765L30.2337 36.6471L31.7631 36.1765L32.1749 36.1177Z" fill="#FCFCFC"/>
<path d="M31.1193 43.4118C30.884 43.4118 30.5898 43.4706 30.3545 43.4706C30.1193 43.4706 29.8251 43.4706 29.5898 43.4118L30.0604 37.7648L30.1193 37.2354H30.5898L30.6487 37.7648L31.1193 43.4118Z" fill="#E34D30"/>
<path d="M32.883 32.7057C32.883 33.3528 32.7066 33.8822 32.4713 33.8822H32.4125C32.0595 35.0587 31.2948 35.8822 30.3536 35.8822C29.4125 35.8822 28.5889 35.0587 28.2948 33.8822H28.236C28.0007 33.8822 27.8242 33.3528 27.8242 32.7057C27.8242 32.0587 28.0007 31.5293 28.236 31.5293C28.5301 30.294 29.3536 29.4116 30.3536 29.4116C31.3536 29.4116 32.236 29.941 32.6477 31.0587L32.5889 31.4116C32.7066 31.5293 32.883 32.0587 32.883 32.7057Z" fill="#F8CFA3"/>
<path d="M30.3541 36.7061L29.707 37.2943L30.3541 38.059L31.06 37.2943L30.3541 36.7061Z" fill="#D54232"/>
<path d="M36.8251 40.2351C36.531 40.588 36.2369 40.941 35.9428 41.2351L35.8251 41.3527C34.8251 42.2351 33.6487 42.8822 32.2957 43.2351C32.1781 43.2939 32.0016 43.2939 31.884 43.3527C31.7663 43.3527 31.7075 43.4116 31.5898 43.4116L32.2369 36.1763L36.3545 37.7645C36.3545 37.7645 36.531 37.7057 36.8251 40.0586V40.2351Z" fill="#4C525E"/>
<path d="M32.3548 38.9998L33.5901 40.2351L32.296 43.2351C32.1783 43.2939 32.0018 43.2939 31.8842 43.3527C31.7665 43.3527 31.7077 43.4116 31.5901 43.4116H31.5312C31.6489 41.6469 31.8254 37.941 32.1783 36.1763L33.5901 38.0586L32.3548 38.9998Z" fill="#646C79"/>
<path d="M36.0007 40.1177L35.9419 41.2353L35.8242 41.353L36.0007 40.1177Z" fill="#343843"/>
<path d="M32.1751 36.1176L31.881 35.647L30.3516 36.7058L31.8222 38.0587L32.1751 36.1176Z" fill="#D1D1D3"/>
<path d="M29.1769 43.3527C29.0593 43.3527 29.0005 43.2939 28.8828 43.2939C28.7063 43.2939 28.5887 43.2351 28.4122 43.1762C27.0593 42.8821 25.8828 42.1762 24.8828 41.2939L24.7652 41.1762C24.4122 40.8821 24.1181 40.5292 23.8828 40.1762V39.9409C24.1769 37.588 24.3534 37.6468 24.3534 37.6468L28.471 36.0586L29.1769 43.3527Z" fill="#4C525E"/>
<path d="M29.2348 43.353C29.1172 43.353 28.9995 43.2941 28.8819 43.2941C28.7054 43.2941 28.5878 43.2353 28.4113 43.1765L27.1172 40.1765L28.3525 38.9412L27.1172 38L28.529 36.1177C28.8819 37.8824 29.1172 41.6471 29.2348 43.353Z" fill="#646C79"/>
<path d="M24.9421 41.353L24.8244 41.2353L24.7656 40.1177L24.9421 41.353Z" fill="#343843"/>
<path d="M28.5312 36.1176L28.8254 35.647L30.3548 36.7058L28.943 38.0587L28.5312 36.1176Z" fill="#D1D1D3"/>
<path d="M28.0591 32.1765C28.0591 32.0001 28.2943 31.7648 28.3532 31.5883L28.7061 30.6471C28.7061 30.6471 28.8826 30.2354 29.3532 30.4118C29.3532 30.4118 29.6473 30.5883 30.2943 30.4707C30.2943 30.4707 31.5885 30.353 31.8826 30.5883C31.8826 30.5883 32.5296 30.7648 32.5296 32.1765H32.7649C32.8238 32.0001 32.9414 31.5295 32.8238 31.1765C32.8238 31.1765 33.1767 29.5295 32.2355 29.1765C32.2355 29.1765 32.2943 29.0589 32.3532 29.0589C32.3532 29.0589 32.0591 29.0001 31.7649 29.1177C31.7649 29.1177 31.6473 28.5883 30.9414 28.6471C30.9414 28.6471 29.7061 28.2942 29.4708 28.706C29.4708 28.706 28.9414 28.6471 28.9414 28.8824C28.9414 28.8824 27.8826 29.0589 27.7061 30.6471C27.7061 30.6471 27.6473 31.5295 27.7649 32.2354H28.0591V32.1765Z" fill="#343843"/>
<path d="M57.6459 34.2354C57.4694 35.1765 57.4694 36.0589 57.6459 37.0001H54.293C54.4694 36.0589 54.4694 35.1765 54.293 34.2354H57.6459Z" fill="#F1B97C"/>
<path d="M57.7642 36.1177L57.4113 43.2941C57.2937 43.2941 57.2348 43.353 57.1172 43.353H57.0584C56.9407 43.353 56.8231 43.4118 56.6466 43.4118C56.4113 43.4118 56.1172 43.4706 55.8819 43.4706C55.6466 43.4706 55.3525 43.4706 55.1172 43.4118C54.9995 43.4118 54.8819 43.4118 54.7054 43.353H54.6466C54.529 43.353 54.4701 43.2941 54.3525 43.2941L54.1172 36.1177L54.4113 36.1765L55.9407 36.6471L57.4701 36.1765L57.7642 36.1177Z" fill="#FCFCFC"/>
<path d="M56.7052 43.4118C56.4699 43.4118 56.1758 43.4706 55.9405 43.4706C55.7052 43.4706 55.4111 43.4706 55.1758 43.4118L55.6464 37.7648L55.7052 37.2354H56.1758L56.2346 37.7648L56.7052 43.4118Z" fill="#E34D30"/>
<path d="M58.469 32.7057C58.469 33.3528 58.2925 33.8822 58.0572 33.8822H57.9984C57.6454 35.0587 56.8807 35.8822 55.9396 35.8822C54.9984 35.8822 54.1749 35.0587 53.8807 33.8822H53.8219C53.5866 33.8822 53.4102 33.3528 53.4102 32.7057C53.4102 32.0587 53.5866 31.5293 53.8219 31.5293C54.116 30.294 54.9396 29.4116 55.9396 29.4116C56.9396 29.4116 57.8219 29.941 58.116 31.1763L58.1749 31.4704C58.4102 31.4116 58.469 32.0587 58.469 32.7057Z" fill="#F8CFA3"/>
<path d="M55.94 36.7061L55.293 37.2943L55.94 38.059L56.6459 37.2943L55.94 36.7061Z" fill="#D54232"/>
<path d="M62.4111 40.2351C62.117 40.588 61.8228 40.941 61.5287 41.2351L61.4111 41.3527C60.4111 42.2351 59.2346 42.8822 57.8817 43.2351C57.764 43.2939 57.5875 43.2939 57.4699 43.3527C57.3523 43.3527 57.2934 43.4116 57.1758 43.4116L57.8228 36.1763L61.9405 37.7645C61.9405 37.7645 62.117 37.7057 62.4111 40.0586V40.2351Z" fill="#4C525E"/>
<path d="M57.9407 38.9998L59.176 40.2351L57.8819 43.2351C57.7642 43.2939 57.5878 43.2939 57.4701 43.3527C57.3525 43.3527 57.2937 43.4116 57.176 43.4116H57.1172C57.2348 41.6469 57.4113 37.941 57.7642 36.1763L59.176 38.0586L57.9407 38.9998Z" fill="#646C79"/>
<path d="M61.528 40.1177L61.4692 41.2353L61.3516 41.353L61.528 40.1177Z" fill="#343843"/>
<path d="M57.7649 36.1176L57.4708 35.647L55.9414 36.7058L57.412 38.0587L57.7649 36.1176Z" fill="#D1D1D3"/>
<path d="M54.7629 43.3527C54.6452 43.3527 54.5864 43.2939 54.4688 43.2939C54.2923 43.2939 54.1746 43.2351 53.9982 43.1762C52.6452 42.8821 51.4688 42.1762 50.4688 41.2939L50.3511 41.1762C49.9982 40.8821 49.704 40.5292 49.4688 40.1762V39.9409C49.7629 37.588 49.9393 37.6468 49.9393 37.6468L54.057 36.0586L54.7629 43.3527Z" fill="#4C525E"/>
<path d="M54.8247 43.353C54.707 43.353 54.5894 43.2941 54.4717 43.2941C54.2953 43.2941 54.1776 43.2353 54.0012 43.1765L52.707 40.1765L53.9423 38.9412L52.707 38L54.1188 36.1177C54.4717 37.8824 54.707 41.6471 54.8247 43.353Z" fill="#646C79"/>
<path d="M50.528 41.353L50.4104 41.2353L50.3516 40.1177L50.528 41.353Z" fill="#343843"/>
<path d="M54.1172 36.1176L54.4113 35.647L55.9407 36.7058L54.529 38.0587L54.1172 36.1176Z" fill="#D1D1D3"/>
<path d="M53.6466 32.1763C53.6466 31.9999 53.8819 31.7646 53.9407 31.5881L54.2937 30.6469C54.2937 30.6469 54.4701 30.2352 54.9407 30.4116C54.9407 30.4116 55.2348 30.5881 55.8819 30.4704C55.8819 30.4704 57.176 30.3528 57.4701 30.5881C57.4701 30.5881 58.1172 30.7646 58.1172 32.1763H58.3525C58.4113 31.9999 58.529 31.5293 58.4113 31.1763C58.4113 31.1763 58.7642 29.5293 57.8231 29.1763C57.8231 29.1763 57.8819 29.0587 57.9407 29.0587C57.9407 29.0587 57.6466 28.9999 57.3525 29.1175C57.3525 29.1175 57.2348 28.5881 56.5289 28.6469C56.5289 28.6469 55.2937 28.294 55.0584 28.7057C55.0584 28.7057 54.5289 28.6469 54.5289 28.8822C54.5289 28.8822 53.4701 29.0587 53.2937 30.6469C53.2937 30.6469 53.2348 31.5293 53.3525 32.2352H53.6466V32.1763ZM48.0584 16.0587V16.941C47.9995 18.1763 47.8231 19.4116 47.529 20.4704C47.0584 20.7646 46.5289 21.0587 45.9995 21.2352C45.6466 21.3528 45.2937 21.4704 44.9407 21.5293C44.7642 21.5881 44.5878 21.5881 44.4113 21.6469H41.7642C41.5878 21.5881 41.4113 21.5881 41.176 21.5293C40.8231 21.4704 40.529 21.3528 40.176 21.2352C39.6466 21.0587 39.1172 20.7646 38.6466 20.4704C38.3525 19.4116 38.176 18.1763 38.1172 16.941V16.0587C38.1172 10.7057 40.2937 6.41162 43.0584 6.41162C45.8819 6.41162 48.0584 10.7057 48.0584 16.0587Z" fill="#343843"/>
<path d="M49.6487 18.4705C49.0604 19.2352 48.3546 19.8823 47.531 20.4117C47.0604 20.7058 46.531 20.9999 46.0016 21.1764C45.6487 21.2941 45.2957 21.4117 44.9428 21.4705C44.7663 21.5294 44.5898 21.5294 44.4134 21.5882C44.3545 21.5882 44.2957 21.5882 44.2369 21.647C44.1193 21.647 43.9428 21.7058 43.8251 21.7058C43.5898 21.7058 43.3546 21.7646 43.1193 21.7646C42.884 21.7646 42.6487 21.7646 42.4134 21.7058C42.2957 21.7058 42.1193 21.7058 42.0016 21.647C41.9428 21.647 41.884 21.647 41.8251 21.5882C41.6487 21.5294 41.4722 21.5294 41.2369 21.4705C40.884 21.4117 40.5898 21.2941 40.2369 21.1764C39.7075 20.9999 39.1781 20.7058 38.7075 20.4117C37.884 19.8823 37.1781 19.2352 36.5898 18.4705C36.8251 17.7058 37.4134 17.1176 38.1781 16.8823C38.4134 16.8235 38.6487 16.7646 38.9428 16.7646H47.2369C47.4722 16.7646 47.7663 16.8235 48.0016 16.8823C48.8251 17.1176 49.4134 17.7058 49.6487 18.4705Z" fill="#D54232"/>
<path d="M45.4115 16.6472V16.7648L44.7057 19.9413L44.3527 21.5884V21.6472C44.2351 21.6472 44.0586 21.706 43.9409 21.706C43.7056 21.706 43.4704 21.7648 43.2351 21.7648C42.9998 21.7648 42.7645 21.7649 42.5292 21.706C42.4115 21.706 42.2351 21.706 42.1174 21.6472V21.5884L41.7645 19.9413L41.0586 16.7648V16.6472C41.1762 16.5884 41.2351 16.5296 41.2939 16.4707C41.4115 16.2943 41.4704 16.1766 41.4704 16.1766L41.5292 15.0001V14.5884C42.2351 14.8237 44.3527 14.8237 45.0586 14.5884V14.9413L45.1174 16.1178C45.1174 16.1178 45.1174 16.2943 45.2939 16.4119C45.2351 16.5296 45.2939 16.6472 45.4115 16.6472Z" fill="#F1B97C"/>
<path d="M43.1749 8.23535C41.6455 8.23535 40.4102 9.47065 40.4102 11.0001V12.9412C40.4102 14.4706 41.6455 15.7059 43.1749 15.7059C44.7043 15.7059 45.9396 14.4706 45.9396 12.9412V11.0001C45.8807 9.47065 44.7043 8.23535 43.1749 8.23535Z" fill="#F8CFA3"/>
<path d="M45.5892 19.7061L45.0009 21.4708C44.8244 21.5296 44.648 21.5296 44.4715 21.5884C44.4127 21.5884 44.3539 21.5884 44.295 21.6472C44.1774 21.6472 44.0009 21.7061 43.8833 21.7061C43.648 21.7061 43.4127 21.7649 43.1774 21.7649C42.9421 21.7649 42.7068 21.7649 42.4715 21.7061C42.3539 21.7061 42.1774 21.7061 42.0597 21.6472C42.0009 21.6472 41.9421 21.6472 41.8833 21.5884C41.7068 21.5296 41.5303 21.5296 41.295 21.4708L40.7656 19.7061C41.0597 19.8237 41.3539 19.8825 41.7068 19.9413C41.8244 19.9413 41.9421 20.0002 42.1186 20.0002C42.4715 20.059 42.8833 20.059 43.2362 20.059C43.648 20.059 44.0009 20.059 44.3539 20.0002C44.4715 20.0002 44.5892 19.9413 44.7656 19.9413C45.0009 19.8825 45.295 19.8237 45.5892 19.7061Z" fill="#BB5C64"/>
<path d="M45.4099 19.0589L46.4688 20.4707L46.057 21.1766C45.704 21.2942 45.3511 21.4119 44.9982 21.4707C44.8217 21.5295 44.6452 21.5295 44.4687 21.5884C44.4099 21.5884 44.3511 21.5883 44.2923 21.6472C44.1746 21.6472 43.9982 21.706 43.8805 21.706V21.6472L44.2923 20.0589L45.057 16.8236L45.1158 16.5295L46.5276 16.8236L46.704 19.1178H45.4099V19.0589ZM42.4099 21.706C42.2923 21.706 42.1158 21.706 41.9982 21.6472C41.9393 21.6472 41.8805 21.6472 41.8217 21.5884C41.6452 21.5295 41.4687 21.5295 41.2335 21.4707C40.8805 21.4119 40.5864 21.2942 40.2335 21.1766L39.7629 20.4707L40.8217 19.0589H39.4688L39.6452 16.7648L41.1746 16.4707L41.2335 16.7648L41.9982 20.0001L42.4099 21.5884V21.706Z" fill="#F1582E"/>
<path d="M39.883 11.6471C39.883 11.6471 43.1183 11.1765 44.2948 9.11765C44.2948 9.11765 44.8242 11.2353 46.3536 11.6471L46.0007 8.64706C45.9418 8.29412 45.7654 8 45.4124 7.82353L43.5889 6.88235C43.2948 6.70588 42.9418 6.70588 42.5889 6.88235L41.0006 7.70588C40.7654 7.82353 40.6477 8 40.5301 8.23529L39.5889 10.4118C39.4124 10.8235 39.5301 11.3529 39.883 11.6471Z" fill="#343843"/>
</svg>
