<svg width="40" height="40" viewBox="0 0 40 40" fill="none" xmlns="http://www.w3.org/2000/svg">
<path d="M38.6109 1.36285C38.4327 1.1832 38.2207 1.04061 37.9872 0.943303C37.7536 0.845997 37.5031 0.795898 37.25 0.795898C36.997 0.795898 36.7465 0.845997 36.5129 0.943303C36.2794 1.04061 36.0674 1.1832 35.8892 1.36285L1.38921 35.8628C1.20957 36.041 1.06698 36.253 0.969671 36.4866C0.872364 36.7201 0.822266 36.9707 0.822266 37.2237C0.822266 37.4767 0.872364 37.7272 0.969671 37.9608C1.06698 38.1943 1.20957 38.4063 1.38921 38.5845C1.56739 38.7642 1.77938 38.9067 2.01294 39.0041C2.2465 39.1014 2.49702 39.1515 2.75005 39.1515C3.00307 39.1515 3.25359 39.1014 3.48715 39.0041C3.72071 38.9067 3.9327 38.7642 4.11088 38.5845L38.6109 4.08451C38.7905 3.90633 38.9331 3.69435 39.0304 3.46078C39.1277 3.22722 39.1778 2.9767 39.1778 2.72368C39.1778 2.47066 39.1277 2.22014 39.0304 1.98657C38.9331 1.75301 38.7905 1.54102 38.6109 1.36285Z" fill="#3F3F3F"/>
</svg>
