<svg width="18" height="19" viewBox="0 0 18 19" fill="none" xmlns="http://www.w3.org/2000/svg">
<path d="M7.5 17.3071C7.5 17.506 7.42098 17.6968 7.28033 17.8375C7.13968 17.9781 6.94891 18.0571 6.75 18.0571H1.5C1.10218 18.0571 0.720644 17.8991 0.43934 17.6178C0.158035 17.3365 0 16.955 0 16.5571V1.55713C0 1.1593 0.158035 0.777773 0.43934 0.496469C0.720644 0.215164 1.10218 0.0571289 1.5 0.0571289H6.75C6.94891 0.0571289 7.13968 0.136147 7.28033 0.276799C7.42098 0.417451 7.5 0.608217 7.5 0.807129C7.5 1.00604 7.42098 1.19681 7.28033 1.33746C7.13968 1.47811 6.94891 1.55713 6.75 1.55713H1.5V16.5571H6.75C6.94891 16.5571 7.13968 16.6361 7.28033 16.7768C7.42098 16.9174 7.5 17.1082 7.5 17.3071ZM17.7806 8.5265L14.0306 4.7765C13.8899 4.63577 13.699 4.55671 13.5 4.55671C13.301 4.55671 13.1101 4.63577 12.9694 4.7765C12.8286 4.91723 12.7496 5.10811 12.7496 5.30713C12.7496 5.50615 12.8286 5.69702 12.9694 5.83775L15.4397 8.30713H6.75C6.55109 8.30713 6.36032 8.38615 6.21967 8.5268C6.07902 8.66745 6 8.85822 6 9.05713C6 9.25604 6.07902 9.44681 6.21967 9.58746C6.36032 9.72811 6.55109 9.80713 6.75 9.80713H15.4397L12.9694 12.2765C12.8286 12.4172 12.7496 12.6081 12.7496 12.8071C12.7496 13.0062 12.8286 13.197 12.9694 13.3378C13.1101 13.4785 13.301 13.5575 13.5 13.5575C13.699 13.5575 13.8899 13.4785 14.0306 13.3378L17.7806 9.58775C17.8504 9.5181 17.9057 9.43538 17.9434 9.34433C17.9812 9.25329 18.0006 9.15569 18.0006 9.05713C18.0006 8.95857 17.9812 8.86097 17.9434 8.76992C17.9057 8.67887 17.8504 8.59616 17.7806 8.5265Z" fill="#3F3F3F" fill-opacity="0.8"/>
</svg>
