<svg width="46" height="47" viewBox="0 0 46 47" fill="none" xmlns="http://www.w3.org/2000/svg">
<path d="M44.9628 12.4926L33.5645 1.09434C32.8989 0.432766 31.9995 0.0601102 31.0611 0.0571289H14.9389C14.0005 0.0601102 13.1011 0.432766 12.4355 1.09434L1.03721 12.4926C0.375637 13.1582 0.00298129 14.0576 0 14.9961V31.1182C0.00298129 32.0566 0.375637 32.9561 1.03721 33.6216L12.4355 45.0199C13.1011 45.6815 14.0005 46.0541 14.9389 46.0571H31.0611C31.9995 46.0541 32.8989 45.6815 33.5645 45.0199L44.9628 33.6216C45.6244 32.9561 45.997 32.0566 46 31.1182V14.9961C45.997 14.0576 45.6244 13.1582 44.9628 12.4926Z" fill="#3F3F3F"/>
</svg>
