<svg width="20" height="22" viewBox="0 0 20 22" fill="none" xmlns="http://www.w3.org/2000/svg">
<path d="M18.97 5.25883L10.72 0.744768C10.4996 0.62297 10.2518 0.559082 10 0.559082C9.74816 0.559082 9.50043 0.62297 9.28 0.744768L1.03 5.2607C0.794395 5.38962 0.597722 5.57942 0.460517 5.81029C0.323313 6.04116 0.25061 6.30464 0.25 6.57321V15.5395C0.25061 15.808 0.323313 16.0715 0.460517 16.3024C0.597722 16.5332 0.794395 16.723 1.03 16.852L9.28 21.3679C9.50043 21.4897 9.74816 21.5536 10 21.5536C10.2518 21.5536 10.4996 21.4897 10.72 21.3679L18.97 16.852C19.2056 16.723 19.4023 16.5332 19.5395 16.3024C19.6767 16.0715 19.7494 15.808 19.75 15.5395V6.57414C19.7499 6.3051 19.6774 6.04104 19.5402 5.80963C19.403 5.57821 19.206 5.38797 18.97 5.25883ZM10 2.05727L17.5319 6.18227L14.7409 7.71039L7.20813 3.58539L10 2.05727ZM10 10.3073L2.46812 6.18227L5.64625 4.44227L13.1781 8.56727L10 10.3073ZM1.75 7.49477L9.25 11.5991V19.642L1.75 15.5404V7.49477ZM18.25 15.5366L10.75 19.642V11.6029L13.75 9.96133V13.3073C13.75 13.5062 13.829 13.6969 13.9697 13.8376C14.1103 13.9783 14.3011 14.0573 14.5 14.0573C14.6989 14.0573 14.8897 13.9783 15.0303 13.8376C15.171 13.6969 15.25 13.5062 15.25 13.3073V9.14008L18.25 7.49477V15.5366Z" fill="#3F3F3F" fill-opacity="0.8"/>
</svg>
