<svg width="46" height="45" viewBox="0 0 46 45" fill="none" xmlns="http://www.w3.org/2000/svg">
<path d="M45.6227 17.0508L23.5811 0.212857C23.414 0.0852453 23.2096 0.0161133 22.9993 0.0161133C22.7891 0.0161133 22.5847 0.0852453 22.4176 0.212857L0.375969 17.0508C0.217843 17.1723 0.10137 17.3399 0.0426555 17.5304C-0.0160594 17.721 -0.0141155 17.9251 0.0482185 18.1145L8.46814 43.4433C8.53177 43.6343 8.65398 43.8005 8.8174 43.9182C8.98083 44.0358 9.17717 44.099 9.37855 44.0988H36.624C36.8253 44.0987 37.0215 44.0354 37.1849 43.9178C37.3482 43.8002 37.4705 43.6342 37.5344 43.4433L45.9543 18.1145C46.0151 17.9246 46.0159 17.7206 45.9565 17.5303C45.8972 17.3399 45.7806 17.1725 45.6227 17.0508Z" fill="#3F3F3F"/>
</svg>
