<svg width="57" height="56" viewBox="0 0 57 56" fill="none" xmlns="http://www.w3.org/2000/svg">
<g clip-path="url(#clip0_1329_3102)">
<path d="M28.5 56C43.964 56 56.5 43.464 56.5 28C56.5 12.536 43.964 0 28.5 0C13.036 0 0.5 12.536 0.5 28C0.5 43.464 13.036 56 28.5 56Z" fill="#42A3DB"/>
<path d="M37.9078 11.6377L29.4203 26.6877L15.0703 43.1377L27.8891 56.0002H28.5016C43.2453 56.0002 55.3203 44.6252 56.4141 30.1439L37.9078 11.6377Z" fill="#347CBE"/>
<path d="M32.4805 25.2437H25.4805C27.0555 33.4249 30.3367 41.2562 35.1492 48.2124C35.2805 46.0249 35.5867 43.9249 35.9367 41.8687C37.9492 42.4374 39.9617 42.8749 41.9305 43.1812C37.6867 37.8437 34.493 31.7624 32.4805 25.2437Z" fill="#CD2F30"/>
<path d="M24.5203 25.2439C22.5078 31.8064 19.3141 37.8877 15.0703 43.1377C17.0391 42.8314 19.0516 42.3939 21.0641 41.8252C21.4578 43.8814 21.7203 45.9814 21.8516 48.1689C26.6641 41.2127 29.9016 33.3814 31.5203 25.2002H24.5203V25.2439Z" fill="#F04D45"/>
<path d="M41.4062 22.7499C42.1938 21.9624 42.1938 20.6937 41.4062 19.9062C40.8375 19.3374 40.6625 18.4624 40.9688 17.7187C41.4062 16.6687 40.925 15.5312 39.875 15.0937C39.1313 14.7874 38.65 14.0437 38.65 13.2124C38.65 12.1187 37.7312 11.1999 36.6375 11.1999C35.8062 11.1999 35.1063 10.7187 34.7563 9.9749C34.3188 8.9249 33.1375 8.44365 32.1313 8.88115C31.3875 9.1874 30.5125 9.0124 29.9438 8.44365C29.1563 7.65615 27.8875 7.65615 27.1 8.44365C26.5313 9.0124 25.6563 9.1874 24.9125 8.88115C23.8625 8.44365 22.725 8.9249 22.2875 9.9749C21.9813 10.7187 21.2375 11.1999 20.4063 11.1999C19.3125 11.1999 18.3938 12.1187 18.3938 13.2124C18.3938 14.0437 17.9125 14.7437 17.1688 15.0937C16.1187 15.5312 15.6375 16.7124 16.075 17.7187C16.3812 18.4624 16.2062 19.3374 15.6375 19.9062C14.85 20.6937 14.85 21.9624 15.6375 22.7499C16.2062 23.3187 16.3812 24.1937 16.075 24.9374C15.6375 25.9874 16.1187 27.1249 17.1688 27.5624C17.9125 27.8687 18.3938 28.6124 18.3938 29.4437C18.3938 30.5374 19.3125 31.4562 20.4063 31.4562C21.2375 31.4562 21.9375 31.9374 22.2875 32.6811C22.725 33.7311 23.9063 34.2124 24.9125 33.7749C25.6563 33.4686 26.5313 33.6436 27.1 34.2124C27.8875 34.9999 29.1563 34.9999 29.9438 34.2124C30.5125 33.6436 31.3875 33.4686 32.1313 33.7749C33.1813 34.2124 34.3188 33.7311 34.7563 32.6811C35.0625 31.9374 35.8062 31.4562 36.6375 31.4562C37.7312 31.4562 38.65 30.5374 38.65 29.4437C38.65 28.6124 39.1313 27.9124 39.875 27.5624C40.925 27.1249 41.4062 25.9437 40.9688 24.9374C40.6625 24.1937 40.8375 23.3187 41.4062 22.7499Z" fill="white"/>
<path d="M28.5008 30.9752C23.1633 30.9752 18.832 26.6439 18.832 21.3064C18.832 15.9689 23.1633 11.6377 28.5008 11.6377C33.8383 11.6377 38.1695 15.9689 38.1695 21.3064C38.1695 26.6439 33.8383 30.9752 28.5008 30.9752Z" fill="#FFCD0A"/>
<path d="M26.7073 26.6874C26.4448 26.6874 26.2261 26.5999 26.0511 26.3812L22.4198 22.3562C22.1136 22.0062 22.1136 21.4374 22.4636 21.1312C22.8136 20.8249 23.3823 20.8249 23.6886 21.1749L26.6198 24.4562L33.2261 16.2312C33.5323 15.8374 34.1011 15.7937 34.4511 16.0999C34.8448 16.4062 34.8886 16.9749 34.5823 17.3249L27.3636 26.3374C27.2323 26.5562 26.9698 26.6874 26.7073 26.6874Z" fill="white"/>
</g>
<defs>
<clipPath id="clip0_1329_3102">
<rect width="56" height="56" fill="white" transform="translate(0.5)"/>
</clipPath>
</defs>
</svg>
