<svg width="76" height="59" viewBox="0 0 76 59" fill="none" xmlns="http://www.w3.org/2000/svg">
<path d="M61.75 0.977051H1.75C1.05964 0.977051 0.5 1.53669 0.5 2.22705V42.2271C0.5 42.9174 1.05964 43.4771 1.75 43.4771H61.75C62.4404 43.4771 63 42.9174 63 42.2271V2.22705C63 1.53669 62.4404 0.977051 61.75 0.977051Z" fill="#80DEEA"/>
<path d="M52.1 0.977051C50.0888 10.5206 44.8576 19.0826 37.2836 25.2274C29.7096 31.3722 20.2532 34.7262 10.5 34.7271H0.5V2.22705C0.500989 1.89583 0.633003 1.57847 0.867209 1.34426C1.10142 1.11005 1.41878 0.97804 1.75 0.977051H52.1Z" fill="#B2EBF2"/>
<path d="M0.5 8.47705H63V15.977H0.5V8.47705Z" fill="#37474F"/>
<path d="M49.775 8.47705C48.6885 11.1058 47.34 13.6185 45.75 15.977H0.5V8.47705H49.775Z" fill="#455A64"/>
<path d="M68 28.477V29.702C68.0044 30.6871 67.9585 31.6717 67.8625 32.652C67.1185 41.5134 63.0505 49.7655 56.475 55.752L53.8375 58.152C53.6087 58.3612 53.31 58.4772 53 58.4772C52.69 58.4772 52.3913 58.3612 52.1625 58.152L49.525 55.752C48.3147 54.6529 47.1866 53.4664 46.15 52.202C40.8857 45.8859 38.0018 37.9243 38 29.702V28.477C38.0002 28.2365 38.0699 28.0012 38.2008 27.7994C38.3316 27.5976 38.518 27.4379 38.7375 27.3395L52.4875 21.0895C52.6482 21.0154 52.823 20.9771 53 20.9771C53.177 20.9771 53.3518 21.0154 53.5125 21.0895L58.6 23.402L67.2625 27.3395C67.482 27.4379 67.6684 27.5976 67.7992 27.7994C67.9301 28.0012 67.9998 28.2365 68 28.477Z" fill="#388E3C"/>
<path d="M61.75 34.102C61.75 43.877 54.825 51.827 46.15 52.202C40.8857 45.8859 38.0018 37.9243 38 29.702V28.477C38.0002 28.2365 38.0699 28.0012 38.2008 27.7994C38.3316 27.5976 38.518 27.4379 38.7375 27.3395L52.4875 21.0895C52.6482 21.0154 52.823 20.9771 53 20.9771C53.177 20.9771 53.3518 21.0154 53.5125 21.0895L58.6 23.402C60.6779 26.582 61.7735 30.3034 61.75 34.102Z" fill="#43A047"/>
<path d="M42.1513 35.9768C41.8547 35.9765 41.5679 35.8707 41.3421 35.6784C41.1163 35.486 40.9663 35.2196 40.9188 34.9268C40.6598 33.3307 40.5198 31.7175 40.5001 30.1006C40.4973 29.8581 40.565 29.6201 40.695 29.4155C40.8251 29.2108 41.0119 29.0485 41.2326 28.9481L43.7301 27.8131C43.8801 27.7407 44.043 27.6991 44.2093 27.6906C44.3756 27.6821 44.5419 27.7069 44.6985 27.7636C44.8551 27.8202 44.9987 27.9076 45.1211 28.0206C45.2434 28.1335 45.342 28.2698 45.4109 28.4213C45.4799 28.5729 45.5178 28.7367 45.5226 28.9032C45.5274 29.0696 45.4989 29.2353 45.4387 29.3906C45.3785 29.5459 45.2879 29.6875 45.1723 29.8073C45.0566 29.9271 44.9182 30.0226 44.7651 30.0881L43.0213 30.8806C43.0691 32.1019 43.1914 33.3192 43.3876 34.5256C43.4406 34.8531 43.3613 35.1883 43.1672 35.4574C42.9731 35.7265 42.6801 35.9075 42.3526 35.9606C42.2865 35.9713 42.2183 35.9767 42.1513 35.9768Z" fill="#E8F5E9"/>
<path d="M67.9973 28.7271V29.702C68.0017 30.6871 67.9558 31.6717 67.8598 32.6521L55.1848 46.8145C54.9499 47.0639 54.6271 47.2119 54.2848 47.2271H54.2473C53.9164 47.2222 53.5995 47.0928 53.3598 46.8645L48.3598 41.8645C48.1244 41.6292 47.9922 41.3099 47.9922 40.9771C47.9922 40.6442 48.1244 40.3249 48.3598 40.0896C48.5952 39.8542 48.9144 39.7219 49.2473 39.7219C49.5802 39.7219 49.8994 39.8542 50.1348 40.0896L54.1973 44.1646L67.9973 28.7271Z" fill="#1B5E20"/>
<path d="M53.0003 45.9767C52.6688 45.9765 52.351 45.8448 52.1165 45.6105L47.1165 40.6105C46.8888 40.3747 46.7628 40.059 46.7657 39.7312C46.7685 39.4035 46.9 39.09 47.1317 38.8582C47.3635 38.6264 47.677 38.495 48.0048 38.4921C48.3325 38.4893 48.6483 38.6153 48.884 38.843L52.9503 42.9092L73.319 20.143C73.5411 19.8995 73.8503 19.7536 74.1794 19.7369C74.5085 19.7203 74.8308 19.8343 75.0763 20.0541C75.3218 20.2739 75.4706 20.5817 75.4903 20.9106C75.51 21.2395 75.399 21.5629 75.1815 21.8105L53.9315 45.5605C53.8181 45.6873 53.68 45.7896 53.5257 45.8612C53.3714 45.9327 53.2041 45.9721 53.034 45.9767H53.0003Z" fill="#B2DFDB"/>
<path d="M30.5 30.9771H6.75C6.41848 30.9771 6.10054 30.8454 5.86612 30.6109C5.6317 30.3765 5.5 30.0586 5.5 29.7271C5.5 29.3955 5.6317 29.0776 5.86612 28.8432C6.10054 28.6087 6.41848 28.4771 6.75 28.4771H30.5C30.8315 28.4771 31.1495 28.6087 31.3839 28.8432C31.6183 29.0776 31.75 29.3955 31.75 29.7271C31.75 30.0586 31.6183 30.3765 31.3839 30.6109C31.1495 30.8454 30.8315 30.9771 30.5 30.9771ZM9.25 35.977H6.75C6.41848 35.977 6.10054 35.8454 5.86612 35.6109C5.6317 35.3765 5.5 35.0586 5.5 34.7271C5.5 34.3955 5.6317 34.0776 5.86612 33.8432C6.10054 33.6087 6.41848 33.4771 6.75 33.4771H9.25C9.58152 33.4771 9.89946 33.6087 10.1339 33.8432C10.3683 34.0776 10.5 34.3955 10.5 34.7271C10.5 35.0586 10.3683 35.3765 10.1339 35.6109C9.89946 35.8454 9.58152 35.977 9.25 35.977ZM16.75 35.977H14.25C13.9185 35.977 13.6005 35.8454 13.3661 35.6109C13.1317 35.3765 13 35.0586 13 34.7271C13 34.3955 13.1317 34.0776 13.3661 33.8432C13.6005 33.6087 13.9185 33.4771 14.25 33.4771H16.75C17.0815 33.4771 17.3995 33.6087 17.6339 33.8432C17.8683 34.0776 18 34.3955 18 34.7271C18 35.0586 17.8683 35.3765 17.6339 35.6109C17.3995 35.8454 17.0815 35.977 16.75 35.977ZM30.5 35.977H21.75C21.4185 35.977 21.1005 35.8454 20.8661 35.6109C20.6317 35.3765 20.5 35.0586 20.5 34.7271C20.5 34.3955 20.6317 34.0776 20.8661 33.8432C21.1005 33.6087 21.4185 33.4771 21.75 33.4771H30.5C30.8315 33.4771 31.1495 33.6087 31.3839 33.8432C31.6183 34.0776 31.75 34.3955 31.75 34.7271C31.75 35.0586 31.6183 35.3765 31.3839 35.6109C31.1495 35.8454 30.8315 35.977 30.5 35.977Z" fill="#00ACC1"/>
</svg>
