<svg width="47" height="47" viewBox="0 0 47 47" fill="none" xmlns="http://www.w3.org/2000/svg">
<path d="M24.2865 1.28898C24.1537 1.06589 23.9653 0.881152 23.7398 0.752863C23.5142 0.624574 23.2593 0.557129 23 0.557129C22.7406 0.557129 22.4857 0.624574 22.2601 0.752863C22.0346 0.881152 21.8462 1.06589 21.7134 1.28898L0.150891 44.4755C0.0416277 44.6951 -0.0097841 44.939 0.00153554 45.1841C0.0128552 45.4292 0.0865306 45.6673 0.215568 45.8758C0.344606 46.0844 0.524724 46.2564 0.738826 46.3757C0.952927 46.4949 1.19391 46.5574 1.43889 46.5571H44.5639C44.809 46.5571 45.0501 46.4943 45.2642 46.3747C45.4782 46.2551 45.6582 46.0827 45.787 45.8738C45.9158 45.665 45.9891 45.4266 45.9999 45.1813C46.0108 44.9361 45.9588 44.6921 45.849 44.4727L24.2865 1.28898Z" fill="#3F3F3F"/>
</svg>
