<svg width="22" height="20" viewBox="0 0 22 20" fill="none" xmlns="http://www.w3.org/2000/svg">
<path d="M15.6875 1.05713C13.7516 1.05713 12.0566 1.88963 11 3.29682C9.94344 1.88963 8.24844 1.05713 6.3125 1.05713C4.77146 1.05887 3.29404 1.67181 2.20436 2.76149C1.11468 3.85117 0.501737 5.32859 0.5 6.86963C0.5 13.4321 10.2303 18.744 10.6447 18.9634C10.7539 19.0221 10.876 19.0529 11 19.0529C11.124 19.0529 11.2461 19.0221 11.3553 18.9634C11.7697 18.744 21.5 13.4321 21.5 6.86963C21.4983 5.32859 20.8853 3.85117 19.7956 2.76149C18.706 1.67181 17.2285 1.05887 15.6875 1.05713ZM11 17.4446C9.28813 16.4471 2 11.9031 2 6.86963C2.00149 5.72634 2.45632 4.6303 3.26475 3.82187C4.07317 3.01345 5.16921 2.55862 6.3125 2.55713C8.13594 2.55713 9.66687 3.52838 10.3062 5.08838C10.3628 5.22594 10.4589 5.34359 10.5824 5.42639C10.7059 5.50919 10.8513 5.5534 11 5.5534C11.1487 5.5534 11.2941 5.50919 11.4176 5.42639C11.5411 5.34359 11.6372 5.22594 11.6937 5.08838C12.3331 3.52557 13.8641 2.55713 15.6875 2.55713C16.8308 2.55862 17.9268 3.01345 18.7353 3.82187C19.5437 4.6303 19.9985 5.72634 20 6.86963C20 11.8956 12.71 16.4462 11 17.4446Z" fill="#3F3F3F" fill-opacity="0.8"/>
<path d="M15.6876 1.00713H15.6875C13.7611 1.00713 12.0691 1.82548 11 3.21421C9.93087 1.82548 8.23886 1.00713 6.3125 1.00713L6.31244 1.00713C4.75816 1.00888 3.26805 1.62709 2.16901 2.72613C1.06996 3.82518 0.451752 5.31529 0.45 6.86957V6.86963C0.45 10.1743 2.89818 13.1558 5.38401 15.3328C7.87198 17.5116 10.4114 18.8964 10.6212 19.0075C10.7376 19.0701 10.8678 19.1029 11 19.1029C11.1322 19.1029 11.2623 19.0701 11.3787 19.0076C11.5876 18.897 14.1275 17.5121 16.616 15.3328C19.1018 13.1558 21.55 10.1743 21.55 6.86963V6.86957C21.5482 5.31529 20.93 3.82518 19.831 2.72613C18.732 1.62709 17.2418 1.00888 15.6876 1.00713ZM10.26 5.10734L10.26 5.10738C10.3203 5.25411 10.4228 5.3796 10.5546 5.46793C10.6863 5.55625 10.8414 5.6034 11 5.6034C11.1586 5.6034 11.3137 5.55625 11.4454 5.46793C11.5772 5.3796 11.6797 5.25411 11.74 5.10738L11.74 5.10731C12.3709 3.56524 13.8822 2.60715 15.6874 2.60713C16.8175 2.6086 17.9008 3.05816 18.6999 3.85723C19.499 4.6563 19.9485 5.73964 19.95 6.86969C19.95 9.3601 18.1421 11.7414 16.1072 13.6308C14.0946 15.4996 11.872 16.8761 11 17.3867C10.1271 16.8766 7.90449 15.502 5.89206 13.634C3.85748 11.7454 2.05003 9.36387 2.05 6.86969C2.05147 5.73964 2.50103 4.6563 3.3001 3.85723C4.09917 3.05816 5.18251 2.6086 6.31257 2.60713C8.1178 2.60715 9.62909 3.56802 10.26 5.10734Z" stroke="#3F3F3F" stroke-opacity="0.8" stroke-width="0.1"/>
</svg>
