<?xml version="1.0" standalone="no"?>
<!DOCTYPE svg PUBLIC "-//W3C//DTD SVG 20010904//EN"
 "http://www.w3.org/TR/2001/REC-SVG-20010904/DTD/svg10.dtd">
<svg version="1.0" xmlns="http://www.w3.org/2000/svg"
 width="1456.000000pt" height="1456.000000pt" viewBox="0 0 1456.000000 1456.000000"
 preserveAspectRatio="xMidYMid meet">
<metadata>
Created by potrace 1.14, written by Peter Selinger 2001-2017
</metadata>
<g transform="translate(0.000000,1456.000000) scale(0.100000,-0.100000)"
fill="#000000" stroke="none">
<path d="M4894 11479 c-31 -10 -104 -19 -190 -22 -145 -6 -164 -9 -279 -34
-38 -8 -77 -16 -85 -18 -8 -1 -22 -5 -30 -8 -8 -3 -51 -17 -95 -32 -44 -15
-94 -33 -112 -41 -17 -8 -34 -14 -37 -14 -20 0 -245 -121 -326 -176 -130 -87
-139 -93 -188 -139 -102 -95 -122 -115 -122 -125 0 -5 -7 -10 -15 -10 -8 0
-15 -4 -15 -10 0 -5 -20 -31 -45 -57 -24 -26 -45 -54 -45 -60 0 -7 -4 -13 -8
-13 -5 0 -36 -35 -70 -78 -34 -44 -70 -88 -79 -99 -10 -11 -29 -35 -43 -53
-14 -19 -34 -44 -45 -56 -12 -12 -32 -37 -45 -54 -13 -17 -33 -42 -45 -54 -11
-12 -38 -42 -60 -67 -49 -53 -107 -95 -212 -151 -43 -23 -87 -46 -98 -53 -125
-70 -188 -141 -226 -253 -20 -59 -22 -62 -47 -56 -15 4 -31 9 -37 13 -5 3 -15
6 -22 7 -7 1 -26 12 -43 24 -16 12 -30 18 -30 13 0 -4 -4 -3 -8 3 -12 18 -86
-3 -97 -29 -15 -31 -9 -158 9 -212 14 -41 89 -184 107 -203 10 -11 16 -22 13
-24 -2 -3 5 -13 16 -23 11 -10 20 -24 20 -32 0 -7 3 -13 8 -13 4 0 16 -16 26
-35 11 -19 23 -35 28 -35 4 0 8 -5 8 -10 0 -6 11 -27 24 -48 21 -33 22 -40 9
-58 -12 -20 -24 -54 -25 -79 0 -5 4 -28 11 -51 14 -51 42 -78 75 -72 33 7 37
-9 52 -187 2 -22 5 -54 7 -72 2 -25 -2 -34 -20 -44 -13 -7 -33 -28 -45 -47
-23 -37 -41 -112 -27 -112 5 0 6 -7 3 -15 -4 -8 -1 -15 5 -15 6 0 11 -7 11
-15 0 -8 3 -15 8 -15 4 0 22 -13 41 -29 l35 -28 -2 -109 c-2 -133 -6 -151 -32
-174 -11 -9 -20 -21 -20 -25 0 -4 -7 -13 -15 -19 -15 -11 -22 -33 -30 -85 -4
-27 10 -55 42 -85 20 -19 21 -25 12 -71 -12 -58 -13 -63 -23 -90 -5 -11 -14
-37 -22 -57 -7 -20 -41 -63 -74 -95 -68 -67 -85 -106 -70 -165 6 -20 15 -40
20 -43 6 -4 6 -15 0 -30 -13 -34 -120 -191 -164 -240 -20 -22 -36 -43 -36 -47
0 -5 -5 -8 -10 -8 -10 0 -62 -42 -84 -68 -6 -7 -21 -23 -32 -36 -12 -12 -34
-42 -50 -67 -16 -24 -31 -46 -34 -49 -13 -11 -90 -140 -90 -150 0 -5 -4 -10
-9 -10 -5 0 -13 -10 -17 -22 -3 -13 -13 -31 -22 -40 -8 -10 -12 -18 -8 -18 4
0 -5 -17 -19 -37 -14 -21 -25 -43 -25 -50 0 -7 -4 -13 -10 -13 -5 0 -10 -5
-10 -11 0 -10 -10 -34 -76 -174 -10 -22 -19 -42 -19 -45 -11 -45 -26 -57 -106
-83 -133 -44 -336 -120 -434 -161 -83 -36 -311 -141 -315 -147 -3 -3 -39 -23
-80 -45 -41 -21 -79 -42 -85 -47 -10 -8 -123 -83 -154 -102 -9 -5 -18 -12 -21
-15 -3 -3 -30 -25 -60 -50 -58 -48 -180 -170 -180 -182 0 -4 -7 -13 -15 -22
-27 -27 -84 -143 -99 -203 -19 -74 -15 -190 9 -263 25 -75 58 -133 121 -210
53 -65 170 -180 184 -180 4 0 13 -7 21 -16 15 -18 190 -135 264 -176 87 -48
280 -142 288 -140 4 1 7 -2 7 -8 0 -6 3 -9 8 -8 4 1 25 -6 47 -16 102 -45 293
-118 420 -161 77 -26 147 -49 155 -52 8 -3 20 -7 25 -9 6 -1 57 -17 115 -34
58 -18 110 -33 115 -34 14 -3 124 -34 160 -46 17 -5 41 -11 55 -14 14 -3 52
-12 85 -21 33 -9 71 -19 85 -21 14 -3 33 -7 42 -10 9 -3 26 -7 37 -9 12 -3 30
-7 42 -10 11 -2 28 -6 37 -9 9 -3 33 -8 52 -11 19 -3 44 -9 55 -12 11 -4 27
-7 35 -9 8 -1 49 -9 90 -19 102 -22 108 -24 154 -31 22 -3 43 -7 46 -9 3 -2
21 -6 40 -9 19 -3 44 -7 55 -9 65 -13 102 -20 120 -23 11 -1 47 -8 80 -15 33
-6 71 -13 85 -15 14 -1 34 -5 45 -7 21 -5 229 -38 325 -52 24 -3 63 -9 145
-22 22 -3 54 -7 70 -9 17 -2 44 -5 60 -8 36 -5 103 -14 165 -21 25 -3 65 -8
90 -11 25 -3 56 -7 70 -9 14 -2 45 -6 70 -9 25 -3 70 -8 100 -11 54 -6 83 -9
185 -20 28 -3 72 -8 98 -10 26 -2 69 -6 95 -9 64 -8 156 -17 222 -21 53 -4
123 -10 240 -20 30 -2 98 -7 150 -10 52 -3 120 -8 150 -10 158 -13 541 -32
763 -39 59 -2 110 -6 114 -9 3 -4 13 -2 23 3 10 5 20 7 23 3 22 -22 1840 -21
1876 1 6 4 11 2 11 -4 0 -6 5 -8 11 -4 7 4 59 8 118 10 117 3 302 11 456 20
55 3 132 7 170 9 39 2 108 7 155 10 47 3 110 8 140 10 91 6 222 16 270 20 25
2 77 7 115 10 39 3 90 8 115 10 25 3 70 7 100 10 30 2 75 7 100 9 66 6 161 17
190 22 14 2 57 6 95 10 39 3 84 8 100 10 17 3 53 7 80 10 28 2 66 7 85 10 52
8 78 11 150 19 36 4 67 8 70 10 3 2 30 6 60 9 62 7 101 12 145 19 17 3 52 8
78 12 27 4 56 8 65 9 23 4 112 19 137 22 11 2 47 8 80 14 84 15 99 17 147 25
24 4 52 9 63 11 11 3 35 7 54 10 18 3 43 8 55 10 11 2 35 7 51 10 17 2 44 7
60 11 17 3 39 7 50 8 11 2 20 4 20 5 0 2 14 5 60 13 17 3 39 8 50 11 11 2 65
14 120 25 55 12 129 28 165 37 36 8 74 17 85 19 11 2 58 14 105 25 112 28 107
27 168 44 28 8 52 12 52 9 0 -3 7 0 15 7 8 7 15 9 15 5 0 -4 7 -1 17 6 9 8 18
13 20 12 1 -2 4 -3 6 -2 1 0 9 2 17 4 8 1 35 8 60 15 25 7 50 13 55 15 6 1 17
5 25 8 8 3 92 29 185 58 94 29 173 57 176 62 3 5 10 8 15 8 5 -1 38 9 74 21
36 12 68 21 73 20 4 -1 7 2 7 8 0 5 5 10 11 10 11 0 121 43 201 79 26 12 50
22 53 22 2 0 52 24 110 54 58 30 107 53 108 53 1 -1 13 5 27 14 14 8 64 39
113 67 129 77 242 164 327 251 41 43 80 84 85 91 60 81 109 172 97 183 -3 3
-1 6 5 6 6 0 16 33 23 74 24 143 -7 264 -105 401 -48 68 -144 168 -201 211
-22 16 -41 31 -44 34 -16 17 -89 66 -182 123 -94 58 -401 215 -432 221 -6 1
-32 13 -58 25 -26 12 -53 24 -60 25 -7 1 -31 10 -53 20 -72 31 -482 172 -523
179 -19 4 -127 36 -157 47 -17 6 -100 29 -165 44 -8 2 -44 12 -80 21 -36 9
-72 18 -80 20 -8 2 -44 11 -80 20 -66 17 -111 26 -142 28 -10 1 -18 5 -18 9 0
4 -13 8 -28 8 -16 0 -51 7 -78 15 -27 8 -67 17 -89 20 -73 11 -83 13 -103 19
-11 4 -29 8 -39 10 -60 11 -91 17 -113 22 -14 3 -38 7 -55 10 -16 2 -41 7 -55
10 -37 9 -63 13 -101 18 -19 3 -34 6 -34 7 0 1 -13 3 -30 4 -16 2 -31 4 -32 5
-2 1 -11 3 -20 4 -26 3 -115 18 -138 23 -11 2 -35 6 -53 8 -18 2 -41 6 -50 9
-9 3 -42 8 -72 11 -57 7 -87 11 -130 20 -24 5 -52 9 -157 20 -27 3 -59 8 -73
10 -66 11 -88 14 -130 19 -25 3 -65 8 -90 12 -25 3 -61 7 -80 9 -19 1 -35 3
-35 4 0 1 -25 4 -55 6 -30 3 -68 7 -85 9 -16 3 -66 8 -110 12 -83 7 -120 11
-120 14 0 0 -25 3 -55 5 -284 22 -292 23 -322 58 -153 178 -385 318 -723 437
-198 69 -334 95 -417 77 -16 -3 -41 -2 -58 3 -16 5 -46 10 -67 11 -21 1 -42 5
-48 8 -5 3 -14 6 -20 7 -30 5 -103 28 -125 39 -16 8 -26 23 -28 39 -2 30 -39
107 -50 104 -4 -1 -18 2 -32 6 -14 4 -58 8 -98 9 -52 1 -75 6 -82 17 -5 8 -10
11 -10 5 0 -7 -3 -7 -8 0 -4 6 -25 23 -47 39 -62 45 -86 76 -79 100 12 36 11
60 -3 88 -13 26 -50 55 -65 50 -5 -1 -8 1 -8 6 0 4 -19 8 -43 9 -40 2 -63 18
-105 78 -4 6 -26 35 -48 66 -31 40 -39 60 -33 71 12 21 22 85 20 125 -3 55
-112 121 -149 90 -16 -13 -10 -21 -99 136 l-62 110 29 27 c24 23 29 34 26 66
-6 71 -34 113 -83 128 -29 9 -32 30 -37 266 -4 223 -19 311 -66 390 -52 88
-75 101 -126 70 -23 -15 -39 -36 -51 -70 -10 -27 -33 -70 -51 -95 l-32 -46
-23 21 c-23 23 -72 52 -97 57 -94 23 -194 13 -319 -31 -47 -17 -96 -22 -73 -7
8 4 13 11 12 15 0 3 13 50 30 104 29 92 41 141 44 187 1 11 4 25 8 30 11 19
-1 341 -15 405 -2 8 -7 33 -11 55 -4 22 -10 47 -12 55 -3 8 -5 17 -6 20 0 4
-12 39 -34 95 -4 11 -6 23 -6 28 1 4 -1 7 -6 7 -4 0 -16 20 -27 45 -11 25 -23
45 -27 45 -5 0 -8 5 -8 11 0 16 -102 149 -162 209 -65 66 -198 190 -263 245
-26 22 -57 49 -69 60 -21 20 -204 176 -240 205 -10 8 -32 27 -48 43 -16 15
-30 27 -32 27 -10 0 -104 87 -145 135 -10 11 -28 42 -42 69 -26 54 -82 117
-114 131 -44 18 -130 20 -181 4z"/>
</g>
</svg>
